<?xml version="1.0" encoding="utf-8"?>
<!-- Generator: Adobe Illustrator 25.4.1, SVG Export Plug-In . SVG Version: 6.00 Build 0)  -->
<svg version="1.1" id="Layer_1" xmlns="http://www.w3.org/2000/svg" xmlns:xlink="http://www.w3.org/1999/xlink" x="0px" y="0px"
	 viewBox="0 0 1124.1 1080" style="enable-background:new 0 0 1124.1 1080;" xml:space="preserve">
<style type="text/css">
	.st0{fill:#0D3767;}
	.st1{fill:#017DEE;}
</style>
<g>
	<g>
		<path class="st0" d="M678.7,343c2.9,5.7,5.6,11.6,8,17.5C684.3,354.5,681.6,348.7,678.7,343c-0.6-1.1-1.1-2.2-1.7-3.2
			C677.6,340.8,678.2,341.9,678.7,343z"/>
		<path class="st0" d="M688.6,364.9c2.4,5.9,4.5,11.9,6.5,18C693.1,376.8,690.9,370.8,688.6,364.9z"/>
		<path class="st0" d="M709.6,442.6L709.6,442.6c-0.7-4.3-1.4-8.6-2.2-12.9C708.2,434,708.9,438.3,709.6,442.6z"/>
		<g>
			<path class="st1" d="M618.8,404.1c-1.2-2-3.5-2.9-5.4-4.1c-8.4-5.3-17.2-10-26.5-13.6c-8.6-3.3-17.7-6.1-26.9-6.4
				c-13.4-0.3-26,6-35.5,15.1c-11.1,10.6-18.4,24.6-24.8,38.4c-14.9,32.2-23.4,74-24.5,109.1c-0.1,1.7,0.4,3.4,0.5,5.1
				c0.3,15.6,2.5,30.9,4.4,46.4c0.1,0.9,0.9,1.9,0,2.5c-1,0.7-1.9-0.2-2.7-0.9c-13.2-11.5-22.6-24.2-30.3-39.9
				c-5.5-12.1-10-24.5-12.4-37.5c-3.4-18.4-4-36.5-2.4-55c1.9-21.3,6.3-41.4,13.9-61.4c2.5-6.7,5.6-13.4,9.2-19.6
				c2.5-4.4,4.7-9,7.8-13c2.1-2.7,4.5-3.8,7.9-3.2c8.1,1.5,16,2,24.1-0.2c5.8-1.6,11.3-4.5,15.9-8.5c4.2-3.6,7.5-8.3,9.4-13.5
				c0.6-1.7,1.1-3.4,1.9-5c1.6-3,4.2-4.1,7.5-4.1c4.4-0.1,8.8,1,13,2.1c8.2,2.2,16.4,5.1,24,8.9c0.3,0.2,0.6,0.3,0.9,0.5
				c15.1,8,28,21,38,34.7C611.1,388,615.9,395.8,618.8,404.1z"/>
		</g>
		<path class="st1" d="M635.1,244c-0.9,12.1-4,23-11.7,31.4c-2.8,3.1-6.3,5.8-10.5,8.2c-15,8.3-34.9,2.9-43.8-11.9
			c-1.4-2.3-2.6-4.6-3.6-6.9c-5.3-11.9-5.9-24.5-1.3-37.2c4.8-13.3,13.4-23.6,28.4-25.8c13.3-2,23.7,2.9,32.4,13.5
			C632.1,223.9,634.4,233.5,635.1,244z"/>
		<path class="st1" d="M517.6,307.9c2.4,11.9,2.4,23.3-2.8,33.4c-1.9,3.7-4.5,7.3-7.9,10.7c-12.2,12-32.9,12.2-45.4,0.4
			c-1.9-1.8-3.7-3.7-5.3-5.7c-8.3-10-12.3-22-11.3-35.5c1.1-14.1,6.6-26.3,20.4-32.5c12.3-5.5,23.6-3.6,34.8,4.3
			C509.2,289.3,514,298,517.6,307.9z"/>
		<path class="st0" d="M712.3,481.2c-0.3,15.8-1.4,31.6-5.4,47c-4.5,17.4-9.4,33.5-19.7,48.5c-1.9,2.7-8.2,13.5-8.7,5.7
			c-2.1-28.1-6.7-57-13.8-84.3c-1.9-7.2-4.2-14.3-6.6-21.3c-0.3,0.1-0.7,0.2-1,0.3c-47.7,15-107.5,4.4-137.4-33.6
			c-1.9-2.4-6.3-10.4-8-12.9c12.2,5.8,35.1,6.8,45.2,7.3c28.5,1.4,53.5-7,73.4-27.8c0,0,0.1-0.1,0.1-0.1c-1.4-2.6-2.8-5.1-4.2-7.7
			c-7.6-13.4-15.2-26.9-25.3-38.7c-6.9-8-14.8-15.2-23.6-21c-7.7-5.1-16-9.2-24.7-12.1c-7.4-2.4-15.4-2.5-23.2-3.2
			c-0.7-0.1-1.4-0.1-2.1-0.5c-0.9-0.5-1.5-1.5-1.7-2.5c-0.7-3.6,0.2-7.6-0.2-11.3c-0.4-4.1-1.2-8.2-2.2-12.2c-0.7-3-2-5.8-3.4-8.6
			c-0.7-1.5-2.1-2.6-2.9-4.1c-0.4-0.9-0.5-1.9-0.1-2.8c0.5-0.9,1.5-1.4,2.4-1.9c7.4-3.5,14.8-7,22.4-10c3.1-1.2,6.2-2.4,9.4-3.5
			c2.4-0.8,5.1-2.2,7.8-1.7c4,0.8,5,6.4,7,9.2c2.3,3.1,4.9,5.9,7.8,8.3c5.9,4.8,13.1,7.6,20.6,8.2c6.4,0.5,12.9-0.8,18.7-3.6
			c2.9-1.4,5.6-3.1,8.1-5.2c2.1-1.8,4.3-4.7,7.4-4.2c1.5,0.2,2.7,1.3,3.8,2.3c11,9.9,21.4,19.7,30,31.8c1.7,2.4,3.4,4.9,5,7.4
			c0.8,1.3,1.6,2.5,2.4,3.8c0.3,0.6,2.4,3.3,2.3,3.9c0.6,1,1.2,2.1,1.8,3.1c1.2,2.1,2.3,4.2,3.4,6.4c0.6,1.1,1.1,2.2,1.6,3.2
			c2.9,5.7,5.6,11.6,8,17.5c0.6,1.5,1.2,3,1.8,4.4c2.3,5.9,4.5,11.9,6.5,18c0.9,2.7,1.7,5.4,2.5,8.1c0.1,0.4,0.2,0.7,0.3,1.1
			c0.9,3.1,1.8,6.1,2.6,9.2c1.3,4.6,2.4,9.3,3.6,14c0.3,1.1,0.5,2.3,0.8,3.4c0.5,2.3,1,4.5,1.5,6.8c0,0,0,0,0,0
			c0.3,1.4,0.6,2.9,0.9,4.3c0.8,4.3,1.6,8.6,2.2,12.9C711.5,455.4,712.5,468.2,712.3,481.2z"/>
		<path class="st0" d="M698,392c0.9,3.1,1.8,6.1,2.6,9.2C699.8,398.1,698.9,395.1,698,392z"/>
		<path class="st0" d="M705,418.6c-0.3-1.1-0.5-2.3-0.8-3.4c-1.1-4.7-2.3-9.3-3.6-14c1.3,4.6,2.5,9.3,3.6,14
			C704.5,416.3,704.7,417.5,705,418.6z"/>
	</g>
	<g>
		<path class="st0" d="M268.6,744.1h-48.3l-7.7,22.9h-33l46.8-129.4h36.5L309.7,767h-33.4L268.6,744.1z M260.5,719.8l-16-47.4
			l-15.9,47.4H260.5z"/>
		<path class="st0" d="M480,674.6c7.6,7.7,11.3,18.5,11.3,32.3V767H460v-55.9c0-6.6-1.8-11.8-5.3-15.4c-3.5-3.6-8.3-5.4-14.5-5.4
			c-6.1,0-11,1.8-14.5,5.4c-3.5,3.6-5.3,8.8-5.3,15.4V767h-31.3v-55.9c0-6.6-1.8-11.8-5.3-15.4c-3.5-3.6-8.3-5.4-14.5-5.4
			c-6.1,0-11,1.8-14.5,5.4c-3.5,3.6-5.3,8.8-5.3,15.4V767h-31.5V664.1h31.5V677c3.2-4.3,7.4-7.7,12.5-10.2c5.2-2.5,11-3.8,17.5-3.8
			c7.7,0,14.7,1.7,20.7,5c6.1,3.3,10.8,8.1,14.3,14.2c3.6-5.7,8.4-10.3,14.6-13.8c6.1-3.6,12.8-5.3,20.1-5.3
			C462.2,663,472.4,666.9,480,674.6z"/>
		<path class="st0" d="M507.4,687.5c4-8,9.4-14.1,16.3-18.4c6.9-4.3,14.6-6.5,23-6.5c7.3,0,13.6,1.5,19.1,4.4
			c5.5,3,9.7,6.8,12.6,11.6v-14.6H610V767h-31.5v-14.6c-3.1,4.8-7.3,8.7-12.8,11.6c-5.5,3-11.8,4.4-19.1,4.4c-8.4,0-16-2.2-22.9-6.5
			c-6.9-4.4-12.3-10.6-16.3-18.6c-4-8-6-17.4-6-27.9C501.4,704.8,503.4,695.5,507.4,687.5z M572,696.9c-4.4-4.5-9.7-6.8-15.9-6.8
			c-6.3,0-11.6,2.2-15.9,6.7c-4.4,4.5-6.5,10.7-6.5,18.5c0,7.9,2.2,14.1,6.5,18.7c4.4,4.6,9.7,6.9,15.9,6.9c6.3,0,11.6-2.3,15.9-6.8
			c4.4-4.5,6.5-10.8,6.5-18.6C578.5,707.7,576.3,701.5,572,696.9z"/>
		<path class="st0" d="M718.7,674.7c7.2,7.8,10.8,18.5,10.8,32.2V767h-31.3v-55.9c0-6.9-1.8-12.2-5.3-16c-3.6-3.8-8.4-5.7-14.4-5.7
			c-6,0-10.8,1.9-14.4,5.7c-3.6,3.8-5.3,9.2-5.3,16V767h-31.5V664.1h31.5v13.6c3.2-4.5,7.5-8.1,12.9-10.8c5.4-2.6,11.5-4,18.3-4
			C701.9,663,711.5,666.9,718.7,674.7z"/>
		<path class="st0" d="M745.4,687.5c4-8,9.4-14.1,16.3-18.4c6.9-4.3,14.6-6.5,23-6.5c7.3,0,13.6,1.5,19.1,4.4
			c5.5,3,9.7,6.8,12.6,11.6v-14.6H848V767h-31.5v-14.6c-3.1,4.8-7.3,8.7-12.8,11.6c-5.5,3-11.8,4.4-19.1,4.4c-8.4,0-16-2.2-22.9-6.5
			c-6.9-4.4-12.3-10.6-16.3-18.6c-4-8-6-17.4-6-27.9C739.4,704.8,741.4,695.5,745.4,687.5z M810,696.9c-4.4-4.5-9.7-6.8-15.9-6.8
			c-6.3,0-11.6,2.2-15.9,6.7c-4.4,4.5-6.5,10.7-6.5,18.5c0,7.9,2.2,14.1,6.5,18.7c4.4,4.6,9.7,6.9,15.9,6.9c6.3,0,11.6-2.3,15.9-6.8
			c4.4-4.5,6.5-10.8,6.5-18.6C816.5,707.7,814.3,701.5,810,696.9z"/>
		<path class="st0" d="M928,767l-31.3-43.1V767h-31.5V630.6h31.5V706l31.2-41.8h38.9L924,715.7l43.1,51.3H928z"/>
	</g>
</g>
<g>
	<g>
		<path class="st0" d="M284.4,800.8l-13.5,19.3l-2.1,11.7h-4.1l2.1-11.7l-6.8-19.3h4.5l4.9,15.6l10.4-15.6H284.4z"/>
		<path class="st0" d="M287.1,831c-1.6-0.8-2.8-2-3.6-3.6c-0.9-1.5-1.3-3.3-1.3-5.3c0-2.8,0.6-5.3,1.9-7.6c1.3-2.3,3-4.1,5.3-5.5
			c2.2-1.3,4.7-2,7.5-2c2,0,3.9,0.4,5.5,1.3s2.8,2,3.7,3.6c0.9,1.5,1.3,3.3,1.3,5.4c0,2.8-0.7,5.3-2,7.6c-1.3,2.3-3.1,4.1-5.3,5.4
			c-2.3,1.3-4.8,2-7.5,2C290.4,832.3,288.6,831.8,287.1,831z M298.2,827.2c1.5-1.1,2.8-2.5,3.6-4.2c0.9-1.7,1.3-3.6,1.3-5.6
			c0-2.3-0.7-4-2-5.2c-1.3-1.2-2.9-1.8-4.9-1.8c-1.9,0-3.7,0.5-5.2,1.6s-2.7,2.5-3.5,4.2c-0.8,1.8-1.2,3.6-1.2,5.7
			c0,2.2,0.6,3.9,1.9,5.1s2.8,1.8,4.8,1.8C294.9,828.8,296.6,828.3,298.2,827.2z"/>
		<path class="st0" d="M334.9,807.4l-4.3,24.4h-4.1l0.6-3.6c-1,1.2-2.2,2.2-3.7,2.9c-1.5,0.7-3.1,1-4.7,1c-2.6,0-4.6-0.7-6.1-2.1
			c-1.5-1.4-2.3-3.4-2.3-5.9c0-0.7,0.1-1.5,0.2-2.5l2.5-14.3h4l-2.4,13.8c-0.1,0.6-0.2,1.3-0.2,2c0,1.8,0.5,3.2,1.5,4.1
			c1,0.9,2.4,1.4,4.2,1.4c2.1,0,4-0.7,5.5-2c1.5-1.3,2.5-3.3,2.9-5.8v0.1l2.4-13.5H334.9z"/>
		<path class="st0" d="M347.3,808.3c1.5-0.9,3.2-1.3,5.1-1.3l-0.8,4.2h-1.1c-2.1,0-3.9,0.6-5.3,1.7c-1.4,1.1-2.4,3-2.8,5.7
			l-2.4,13.3H336l4.3-24.4h4.1l-0.8,4.6C344.6,810.5,345.8,809.2,347.3,808.3z"/>
		<path class="st0" d="M366.8,830.1c-1.8-1.4-2.7-3.2-2.7-5.5c0-0.4,0-0.8,0-1h4c-0.1,1.5,0.4,2.7,1.3,3.7s2.5,1.6,4.5,1.6
			c2,0,3.6-0.5,4.8-1.4c1.2-0.9,1.8-2.2,1.8-3.9c0-1-0.3-1.9-0.9-2.6c-0.6-0.7-1.3-1.3-2.1-1.7c-0.8-0.5-2-1-3.5-1.5
			c-1.8-0.7-3.2-1.4-4.3-2s-2-1.5-2.7-2.5c-0.7-1.1-1.1-2.4-1-4.1c0-1.7,0.5-3.3,1.4-4.6c0.9-1.3,2.2-2.4,3.8-3.1
			c1.6-0.7,3.5-1.1,5.5-1.1c2,0,3.8,0.3,5.2,1c1.5,0.7,2.6,1.6,3.3,2.9c0.7,1.2,1.1,2.6,1,4.1h-4.2c0.1-0.8-0.1-1.5-0.5-2.2
			c-0.4-0.7-1-1.3-1.9-1.7s-1.9-0.7-3.1-0.7c-1.9,0-3.5,0.5-4.7,1.4c-1.2,0.9-1.8,2.1-1.8,3.7c0,0.9,0.3,1.7,0.8,2.4
			c0.5,0.7,1.2,1.2,2.1,1.7c0.8,0.5,2,1,3.4,1.6c1.8,0.7,3.2,1.4,4.3,2.1c1.1,0.6,2.1,1.5,2.8,2.6c0.8,1.1,1.2,2.4,1.2,4
			c0,1.7-0.4,3.3-1.3,4.6s-2.2,2.4-3.8,3.2c-1.7,0.8-3.6,1.2-5.8,1.2C370.9,832.2,368.5,831.5,366.8,830.1z"/>
		<path class="st0" d="M391,813c1.4-1.9,3-3.3,4.9-4.4c1.9-1,4-1.6,6.2-1.6c2.1,0,3.9,0.5,5.3,1.4c1.4,0.9,2.4,2.1,2.9,3.5l0.8-4.5
			h4.1l-4.3,24.4h-4.1l0.8-4.5c-1.1,1.4-2.5,2.6-4.2,3.5c-1.8,0.9-3.7,1.4-5.8,1.4c-1.9,0-3.6-0.4-5-1.2c-1.5-0.8-2.6-2-3.4-3.5
			c-0.8-1.5-1.2-3.3-1.2-5.3c0-0.9,0.1-1.8,0.3-2.7C388.8,817.1,389.7,814.9,391,813z M409.2,817.6c0-2.2-0.6-3.9-1.9-5.1
			c-1.3-1.3-2.9-1.9-4.9-1.9c-1.5,0-3,0.4-4.3,1.1c-1.4,0.7-2.6,1.8-3.5,3.1s-1.6,3-2,4.8c-0.1,0.6-0.2,1.3-0.2,2
			c0,2.2,0.6,3.9,1.9,5.2s2.9,1.9,4.9,1.9c1.5,0,3-0.4,4.3-1.1c1.4-0.7,2.6-1.8,3.6-3.2c1-1.4,1.7-3,2-4.8
			C409.2,819,409.2,818.3,409.2,817.6z"/>
		<path class="st0" d="M427.6,802.2c-0.8,0.7-1.4,1.8-1.7,3.5l-0.3,1.7h5.1l-0.6,3.3H425l-3.7,21.1h-4.1l3.7-21.1h-3.1l0.6-3.3h3.1
			l0.3-1.7c0.5-2.7,1.6-4.7,3.2-6c1.6-1.3,4-1.9,7.1-1.9l-0.6,3.4C429.8,801.2,428.4,801.6,427.6,802.2z"/>
		<path class="st0" d="M450,808.2c1.5,0.8,2.6,1.9,3.4,3.3c0.8,1.4,1.2,3,1.2,4.8c0,0.6-0.1,1.4-0.2,2.3c-0.1,0.8-0.3,1.6-0.6,2.4
			h-19.5c-0.1,0.6-0.1,1-0.1,1.3c0,2,0.6,3.6,1.8,4.8c1.2,1.1,2.8,1.7,4.8,1.7c1.8,0,3.3-0.4,4.6-1.2c1.3-0.8,2.3-1.9,3-3.3h4.4
			c-1.1,2.3-2.7,4.3-4.9,5.7c-2.2,1.5-4.8,2.2-7.7,2.2c-3.1,0-5.5-0.9-7.4-2.7c-1.9-1.8-2.8-4.2-2.8-7.2c0-0.9,0.1-1.8,0.3-2.8
			c0.4-2.5,1.4-4.7,2.7-6.6c1.4-1.9,3.1-3.4,5.1-4.4c2-1,4.2-1.5,6.5-1.5C446.7,807,448.5,807.4,450,808.2z M450.4,816.4
			c0-1.9-0.6-3.4-1.8-4.4c-1.2-1-2.8-1.6-4.7-1.6c-2.1,0-4,0.7-5.7,2c-1.7,1.4-2.8,3.2-3.4,5.6h15.5
			C450.4,817.5,450.4,816.9,450.4,816.4z"/>
		<path class="st0" d="M462.1,825.2c-0.1,0.4-0.1,0.8-0.1,1.2c0,0.7,0.2,1.3,0.7,1.6c0.5,0.3,1.2,0.5,2.3,0.5h3l-0.6,3.4h-3.7
			c-1.9,0-3.4-0.4-4.3-1.1c-1-0.7-1.4-2-1.4-3.7c0-0.7,0.1-1.3,0.2-1.9l2.5-14.4h-3.1l0.6-3.3h3.2l1.1-6.1h4.1l-1.1,6.1h6.3
			l-0.6,3.3h-6.4L462.1,825.2z"/>
		<path class="st0" d="M476.8,807.4l4.1,19.7l11.1-19.7h4.2l-21,35.9h-4.2l6.9-11.8l-5.6-24.2H476.8z"/>
		<path class="st0" d="M499.7,826.2l-7.1,12h-2.7l5.3-12H499.7z"/>
		<path class="st0" d="M521.2,830.5c-2-1.1-3.5-2.6-4.6-4.6c-1.1-2-1.6-4.2-1.6-6.7c0-3.5,0.8-6.7,2.4-9.6c1.6-2.9,3.8-5.1,6.6-6.8
			c2.8-1.6,5.9-2.5,9.4-2.5c2.6,0,4.9,0.5,6.9,1.6c2,1.1,3.5,2.6,4.6,4.5c1.1,1.9,1.6,4.2,1.6,6.7c0,3.5-0.8,6.7-2.4,9.6
			c-1.6,2.9-3.8,5.1-6.6,6.8c-2.8,1.6-5.9,2.5-9.4,2.5C525.5,832.2,523.2,831.6,521.2,830.5z M535.6,826.5c2.1-1.4,3.7-3.2,4.8-5.5
			c1.2-2.3,1.7-4.8,1.7-7.4c0-2.9-0.8-5.3-2.5-7s-4-2.5-6.9-2.5c-2.6,0-5,0.7-7,2c-2.1,1.4-3.7,3.2-4.8,5.4
			c-1.1,2.3-1.7,4.7-1.7,7.4c0,2.9,0.8,5.3,2.5,7c1.7,1.7,4,2.6,6.9,2.6C531.2,828.5,533.6,827.8,535.6,826.5z"/>
		<path class="st0" d="M573.5,807.4l-4.3,24.4h-4.1l0.6-3.6c-1,1.2-2.2,2.2-3.7,2.9c-1.5,0.7-3.1,1-4.7,1c-2.6,0-4.6-0.7-6.1-2.1
			c-1.5-1.4-2.3-3.4-2.3-5.9c0-0.7,0.1-1.5,0.2-2.5l2.5-14.3h4l-2.4,13.8c-0.1,0.6-0.2,1.3-0.2,2c0,1.8,0.5,3.2,1.5,4.1
			c1,0.9,2.4,1.4,4.2,1.4c2.1,0,4-0.7,5.5-2c1.5-1.3,2.5-3.3,2.9-5.8v0.1l2.4-13.5H573.5z"/>
		<path class="st0" d="M585.9,808.3c1.5-0.9,3.2-1.3,5.1-1.3l-0.8,4.2h-1.1c-2.1,0-3.9,0.6-5.3,1.7c-1.4,1.1-2.4,3-2.8,5.7
			l-2.4,13.3h-4.1l4.3-24.4h4.1l-0.8,4.6C583.2,810.5,584.4,809.2,585.9,808.3z"/>
		<path class="st0" d="M624.3,802.8c1.6,1.3,2.4,3.1,2.4,5.3c0,0.4-0.1,1-0.2,1.8c-0.4,2.1-1.3,4-2.9,5.7c-1.5,1.6-3.6,2.7-6.1,3.3
			l5.5,13h-4.9l-5.2-12.7h-4.9l-2.3,12.7h-4.1l5.5-31.1h10C620.4,800.8,622.7,801.5,624.3,802.8z M622.4,808.5
			c0-1.4-0.5-2.5-1.4-3.3c-0.9-0.8-2.4-1.2-4.3-1.2h-5.9l-2.1,11.9h6c2.2,0,3.9-0.5,5.2-1.6c1.3-1.1,2.1-2.5,2.4-4.3
			C622.4,809.4,622.4,808.9,622.4,808.5z"/>
		<path class="st0" d="M647.8,808.2c1.5,0.8,2.6,1.9,3.4,3.3c0.8,1.4,1.2,3,1.2,4.8c0,0.6-0.1,1.4-0.2,2.3c-0.1,0.8-0.3,1.6-0.6,2.4
			H632c-0.1,0.6-0.1,1-0.1,1.3c0,2,0.6,3.6,1.8,4.8c1.2,1.1,2.8,1.7,4.8,1.7c1.8,0,3.3-0.4,4.6-1.2c1.3-0.8,2.3-1.9,3-3.3h4.4
			c-1.1,2.3-2.7,4.3-4.9,5.7c-2.2,1.5-4.8,2.2-7.7,2.2c-3.1,0-5.5-0.9-7.4-2.7c-1.9-1.8-2.8-4.2-2.8-7.2c0-0.9,0.1-1.8,0.3-2.8
			c0.4-2.5,1.4-4.7,2.7-6.6c1.4-1.9,3.1-3.4,5.1-4.4c2-1,4.2-1.5,6.5-1.5C644.5,807,646.3,807.4,647.8,808.2z M648.2,816.4
			c0-1.9-0.6-3.4-1.8-4.4c-1.2-1-2.8-1.6-4.7-1.6c-2.1,0-4,0.7-5.7,2c-1.7,1.4-2.8,3.2-3.4,5.6H648
			C648.1,817.5,648.2,816.9,648.2,816.4z"/>
		<path class="st0" d="M656.1,830.4c-1.6-1.2-2.5-2.9-2.5-4.9c0-0.4,0-0.7,0-0.8h4c-0.1,1.3,0.3,2.3,1.1,3.1
			c0.9,0.8,2.1,1.2,3.8,1.2c1.7,0,3-0.3,4-1s1.5-1.5,1.5-2.7c0-1-0.4-1.8-1.2-2.3c-0.8-0.6-2.1-1.2-3.8-1.8
			c-1.5-0.6-2.8-1.1-3.7-1.6c-1-0.5-1.8-1.2-2.5-2.1c-0.7-0.9-1-2.1-1-3.5c0-1.4,0.4-2.6,1.2-3.7s1.9-1.9,3.3-2.5
			c1.4-0.6,3-0.9,4.8-0.9c2.5,0,4.5,0.6,6.1,1.9s2.4,2.9,2.4,4.9c0,0.4,0,0.7,0,0.9h-3.9l0-0.5c0-1.2-0.5-2.1-1.4-2.8
			c-0.9-0.7-2.1-1-3.6-1c-1.5,0-2.7,0.3-3.6,1c-0.9,0.7-1.4,1.5-1.4,2.6c0,1,0.4,1.9,1.3,2.5c0.9,0.6,2.2,1.2,4,2
			c1.5,0.6,2.7,1.1,3.7,1.6c0.9,0.5,1.7,1.2,2.4,2c0.7,0.9,1,1.9,1,3.3c0,1.4-0.4,2.7-1.3,3.7s-2,1.9-3.5,2.5
			c-1.5,0.6-3.2,0.8-5,0.8C659.8,832.3,657.7,831.7,656.1,830.4z"/>
		<path class="st0" d="M687.4,808.4c1.8-0.9,3.7-1.4,5.7-1.4c1.9,0,3.6,0.4,5.1,1.2c1.5,0.8,2.6,1.9,3.4,3.4
			c0.8,1.5,1.2,3.2,1.2,5.2c0,0.9-0.1,1.8-0.3,2.8c-0.4,2.5-1.3,4.7-2.7,6.6c-1.4,1.9-3,3.4-4.9,4.5c-1.9,1.1-4,1.6-6.2,1.6
			c-2.1,0-3.8-0.5-5.2-1.4c-1.4-0.9-2.4-2.1-3.1-3.5l-2.8,16.1h-4.1l6.3-36h4.1l-0.8,4.5C684.3,810.5,685.7,809.4,687.4,808.4z
			 M698.6,817.5c0-2.2-0.6-3.9-1.9-5.1c-1.3-1.2-2.9-1.8-4.9-1.8c-1.5,0-2.9,0.4-4.3,1.1c-1.4,0.7-2.6,1.8-3.6,3.2c-1,1.4-1.7,3-2,4.8c-0.1,0.6-0.2,1.3-0.2,2
			c0,2.2,0.6,3.9,1.9,5.1c1.3,1.3,2.9,1.9,4.9,1.9c1.5,0,3-0.4,4.3-1.1c1.4-0.7,2.6-1.8,3.6-3.2c1-1.4,1.7-3,2-4.9C698.6,818.9,698.6,818.3,698.6,817.5z"/>
		<path class="st0" d="M709.7,831c-1.6-0.8-2.8-2-3.6-3.6c-0.9-1.5-1.3-3.3-1.3-5.3c0-2.8,0.6-5.3,1.9-7.6c1.3-2.3,3-4.1,5.3-5.5
			c2.2-1.3,4.7-2,7.5-2c2,0,3.9,0.4,5.5,1.3s2.8,2,3.7,3.6c0.9,1.5,1.3,3.3,1.3,5.4c0,2.8-0.7,5.3-2,7.6c-1.3,2.3-3.1,4.1-5.3,5.4
			c-2.3,1.3-4.8,2-7.5,2C713.1,832.3,711.3,831.8,709.7,831z M720.8,827.2c1.5-1.1,2.8-2.5,3.6-4.2c0.9-1.7,1.3-3.6,1.3-5.6
			c0-2.3-0.7-4-2-5.2c-1.3-1.2-2.9-1.8-4.9-1.8c-1.9,0-3.7,0.5-5.2,1.6s-2.7,2.5-3.5,4.2c-0.8,1.8-1.2,3.6-1.2,5.7
			c0,2.2,0.6,3.9,1.9,5.1s2.8,1.8,4.8,1.8C717.5,828.8,719.3,828.3,720.8,827.2z"/>
		<path class="st0" d="M753.9,809c1.5,1.4,2.3,3.3,2.3,5.9c0,1-0.1,1.8-0.2,2.5l-2.5,14.4h-4l2.5-13.8c0.1-0.6,0.2-1.3,0.2-2
			c0-1.8-0.5-3.2-1.5-4.1c-1-1-2.4-1.4-4.2-1.4c-2.1,0-4,0.7-5.5,2c-1.5,1.3-2.5,3.3-2.9,5.8v-0.1l-2.4,13.6h-4.1l4.3-24.4h4.1
			l-0.6,3.5c1-1.3,2.3-2.3,3.8-2.9c1.5-0.7,3.1-1,4.8-1C750.3,807,752.4,807.7,753.9,809z"/>
		<path class="st0" d="M761,830.4c-1.6-1.2-2.5-2.9-2.5-4.9c0-0.4,0-0.7,0-0.8h4c-0.1,1.3,0.3,2.3,1.1,3.1c0.9,0.8,2.1,1.2,3.8,1.2
			c1.7,0,3-0.3,4-1s1.5-1.5,1.5-2.7c0-1-0.4-1.8-1.2-2.3c-0.8-0.6-2.1-1.2-3.8-1.8c-1.5-0.6-2.8-1.1-3.7-1.6c-1-0.5-1.8-1.2-2.5-2.1
			c-0.7-0.9-1-2.1-1-3.5c0-1.4,0.4-2.6,1.2-3.7s1.9-1.9,3.3-2.5c1.4-0.6,3-0.9,4.8-0.9c2.5,0,4.5,0.6,6.1,1.9s2.4,2.9,2.4,4.9
			c0,0.4,0,0.7,0,0.9h-3.9l0-0.5c0-1.2-0.5-2.1-1.4-2.8c-0.9-0.7-2.1-1-3.6-1c-1.5,0-2.7,0.3-3.6,1c-0.9,0.7-1.4,1.5-1.4,2.6
			c0,1,0.4,1.9,1.3,2.5c0.9,0.6,2.2,1.2,4,2c1.5,0.6,2.7,1.1,3.7,1.6c0.9,0.5,1.7,1.2,2.4,2c0.7,0.9,1,1.9,1,3.3
			c0,1.4-0.4,2.7-1.3,3.7s-2,1.9-3.5,2.5c-1.5,0.6-3.2,0.8-5,0.8C764.7,832.3,762.6,831.7,761,830.4z"/>
		<path class="st0" d="M788.9,807.4l-4.3,24.4h-4.1l4.3-24.4H788.9z M786,802.8c-0.4-0.4-0.6-1-0.6-1.6c0-0.9,0.3-1.7,1-2.3
			c0.7-0.6,1.4-1,2.3-1c0.7,0,1.2,0.2,1.6,0.6c0.4,0.4,0.6,1,0.6,1.6c0,0.9-0.3,1.7-1,2.3c-0.7,0.6-1.4,1-2.3,1
			C787,803.5,786.4,803.3,786,802.8z"/>
		<path class="st0" d="M802,808.4c1.8-0.9,3.7-1.4,5.7-1.4c2.9,0,5.3,0.9,7,2.6c1.8,1.8,2.7,4.1,2.7,7.1c0,0.9-0.1,1.8-0.3,2.8
			c-0.4,2.5-1.3,4.7-2.7,6.6c-1.4,1.9-3,3.4-4.9,4.5c-1.9,1.1-4,1.6-6.2,1.6c-2.1,0-3.9-0.5-5.3-1.4c-1.4-0.9-2.4-2.1-3-3.5
			l-0.8,4.5h-4.1l5.8-33h4.1l-2.3,13.1C798.8,810.5,800.2,809.3,802,808.4z M813.1,817.5c0-2.2-0.6-3.9-1.9-5.1
			c-1.3-1.2-2.9-1.8-4.9-1.8c-1.5,0-2.9,0.4-4.3,1.1c-1.4,0.7-2.6,1.8-3.6,3.2c-1,1.4-1.7,3-2,4.8c-0.1,0.6-0.2,1.3-0.2,2
			c0,2.2,0.6,3.9,1.9,5.1c1.3,1.3,2.9,1.9,4.9,1.9c1.5,0,3-0.4,4.3-1.1c1.4-0.7,2.6-1.8,3.6-3.2c1-1.4,1.7-3,2-4.9
			C813,818.9,813.1,818.3,813.1,817.5z"/>
		<path class="st0" d="M827.2,807.4l-4.3,24.4h-4.1l4.3-24.4H827.2z M824.3,802.8c-0.4-0.4-0.6-1-0.6-1.6c0-0.9,0.3-1.7,1-2.3
			c0.7-0.6,1.4-1,2.3-1c0.7,0,1.2,0.2,1.6,0.6c0.4,0.4,0.6,1,0.6,1.6c0,0.9-0.3,1.7-1,2.3c-0.7,0.6-1.4,1-2.3,1
			C825.3,803.5,824.7,803.3,824.3,802.8z"/>
		<path class="st0" d="M838.3,798.9l-5.8,33h-4.1l5.8-33H838.3z"/>
		<path class="st0" d="M846.4,807.4l-4.3,24.4H838l4.3-24.4H846.4z M843.5,802.8c-0.4-0.4-0.6-1-0.6-1.6c0-0.9,0.3-1.7,1-2.3
			c0.7-0.6,1.4-1,2.3-1c0.7,0,1.2,0.2,1.6,0.6c0.4,0.4,0.6,1,0.6,1.6c0,0.9-0.3,1.7-1,2.3c-0.7,0.6-1.4,1-2.3,1
			C844.4,803.5,843.9,803.3,843.5,802.8z"/>
		<path class="st0" d="M853.7,825.2c-0.1,0.4-0.1,0.8-0.1,1.2c0,0.7,0.2,1.3,0.7,1.6c0.5,0.3,1.2,0.5,2.3,0.5h3l-0.6,3.4h-3.7
			c-1.9,0-3.4-0.4-4.3-1.1c-1-0.7-1.4-2-1.4-3.7c0-0.7,0.1-1.3,0.2-1.9l2.5-14.4h-3.1l0.6-3.3h3.2l1.1-6.1h4.1l-1.1,6.1h6.3
			l-0.6,3.3h-6.4L853.7,825.2z"/>
		<path class="st0" d="M868.4,807.4l4.1,19.7l11.1-19.7h4.2l-21,35.9h-4.2l6.9-11.8l-5.6-24.2H868.4z"/>
	</g>
</g>
</svg>
