<svg width="24" height="24" viewBox="0 0 24 24" fill="none" xmlns="http://www.w3.org/2000/svg">
<mask id="mask0_226_713" style="mask-type:luminance" maskUnits="userSpaceOnUse" x="2" y="1" width="21" height="22">
<path fill-rule="evenodd" clip-rule="evenodd" d="M2 1.0002H22.4998V22.5052H2V1.0002Z" fill="white"/>
</mask>
<g mask="url(#mask0_226_713)">
<path fill-rule="evenodd" clip-rule="evenodd" d="M13.717 15.2913C14.921 15.2913 15.901 16.2643 15.901 17.4603V20.5363C15.901 20.7933 16.107 20.9993 16.371 21.0053H18.277C19.779 21.0053 21 19.7993 21 18.3173V9.5933C20.993 9.0833 20.75 8.6033 20.333 8.2843L13.74 3.0263C12.855 2.3253 11.617 2.3253 10.729 3.0283L4.181 8.2823C3.748 8.6113 3.505 9.0913 3.5 9.6103V18.3173C3.5 19.7993 4.721 21.0053 6.223 21.0053H8.147C8.418 21.0053 8.638 20.7903 8.638 20.5263C8.638 20.4683 8.645 20.4103 8.657 20.3553V17.4603C8.657 16.2713 9.631 15.2993 10.826 15.2913H13.717ZM18.277 22.5053H16.353C15.251 22.4793 14.401 21.6143 14.401 20.5363V17.4603C14.401 17.0913 14.094 16.7913 13.717 16.7913H10.831C10.462 16.7933 10.157 17.0943 10.157 17.4603V20.5263C10.157 20.6013 10.147 20.6733 10.126 20.7413C10.018 21.7313 9.172 22.5053 8.147 22.5053H6.223C3.894 22.5053 2 20.6263 2 18.3173V9.6033C2.01 8.6093 2.468 7.6993 3.259 7.1003L9.794 1.8553C11.233 0.7153 13.238 0.7153 14.674 1.8533L21.256 7.1033C22.029 7.6923 22.487 8.6003 22.5 9.5823V18.3173C22.5 20.6263 20.606 22.5053 18.277 22.5053Z" fill="#ADADAD"/>
</g>
</svg>
