<?xml version="1.0" encoding="UTF-8"?>
<svg width="24px" height="24px" viewBox="0 0 24 24" version="1.1" xmlns="http://www.w3.org/2000/svg" xmlns:xlink="http://www.w3.org/1999/xlink">
    <title>language</title>
    <g id="Icons" stroke="none" stroke-width="1" fill="none" fill-rule="evenodd">
        <g id="language" fill="#0D3767">
            <path d="M12,2 C17.52,2 22,6.48 22,12 C22,17.52 17.52,22 12,22 C6.48,22 2,17.52 2,12 C2,6.48 6.48,2 12,2 Z M12,20 C16.42,20 20,16.42 20,12 C20,7.58 16.42,4 12,4 C7.58,4 4,7.58 4,12 C4,16.42 7.58,20 12,20 Z M11,7 L11,9 L13,9 L13,7 L11,7 Z M8,13 C8,15.97 9.61,18 12,18 C14.39,18 16,15.97 16,13 L14,13 C14,14.93 13.06,16 12,16 C10.94,16 10,14.93 10,13 L8,13 Z M8,11 L16,11 L16,9 L8,9 L8,11 Z" id="Shape"></path>
        </g>
    </g>
</svg> 