<svg width="327" height="64" viewBox="0 0 327 64" fill="none" xmlns="http://www.w3.org/2000/svg">
<rect width="327" height="64" rx="10" fill="#015C92"/>
<path d="M93.0795 19H92.0227C91.9602 18.696 91.8509 18.429 91.6946 18.1989C91.5412 17.9688 91.3537 17.7756 91.1321 17.6193C90.9134 17.4602 90.6705 17.3409 90.4034 17.2614C90.1364 17.1818 89.858 17.142 89.5682 17.142C89.0398 17.142 88.5611 17.2756 88.1321 17.5426C87.706 17.8097 87.3665 18.2031 87.1136 18.723C86.8636 19.2429 86.7386 19.8807 86.7386 20.6364C86.7386 21.392 86.8636 22.0298 87.1136 22.5497C87.3665 23.0696 87.706 23.4631 88.1321 23.7301C88.5611 23.9972 89.0398 24.1307 89.5682 24.1307C89.858 24.1307 90.1364 24.0909 90.4034 24.0114C90.6705 23.9318 90.9134 23.8139 91.1321 23.6577C91.3537 23.4986 91.5412 23.304 91.6946 23.0739C91.8509 22.8409 91.9602 22.5739 92.0227 22.2727H93.0795C93 22.7187 92.8551 23.1179 92.6449 23.4702C92.4347 23.8224 92.1733 24.1222 91.8608 24.3693C91.5483 24.6136 91.1974 24.7997 90.8082 24.9276C90.4219 25.0554 90.0085 25.1193 89.5682 25.1193C88.8239 25.1193 88.1619 24.9375 87.5824 24.5739C87.0028 24.2102 86.5469 23.6932 86.2145 23.0227C85.8821 22.3523 85.7159 21.5568 85.7159 20.6364C85.7159 19.7159 85.8821 18.9205 86.2145 18.25C86.5469 17.5795 87.0028 17.0625 87.5824 16.6989C88.1619 16.3352 88.8239 16.1534 89.5682 16.1534C90.0085 16.1534 90.4219 16.2173 90.8082 16.3452C91.1974 16.473 91.5483 16.6605 91.8608 16.9077C92.1733 17.152 92.4347 17.4503 92.6449 17.8026C92.8551 18.152 93 18.5511 93.0795 19ZM97.81 25.1364C97.2191 25.1364 96.7006 24.9957 96.2546 24.7145C95.8114 24.4332 95.4648 24.0398 95.2148 23.5341C94.9677 23.0284 94.8441 22.4375 94.8441 21.7614C94.8441 21.0795 94.9677 20.4844 95.2148 19.9759C95.4648 19.4673 95.8114 19.0724 96.2546 18.7912C96.7006 18.5099 97.2191 18.3693 97.81 18.3693C98.4009 18.3693 98.918 18.5099 99.3612 18.7912C99.8072 19.0724 100.154 19.4673 100.401 19.9759C100.651 20.4844 100.776 21.0795 100.776 21.7614C100.776 22.4375 100.651 23.0284 100.401 23.5341C100.154 24.0398 99.8072 24.4332 99.3612 24.7145C98.918 24.9957 98.4009 25.1364 97.81 25.1364ZM97.81 24.233C98.2589 24.233 98.6282 24.1179 98.918 23.8878C99.2077 23.6577 99.4222 23.3551 99.5614 22.9801C99.7006 22.6051 99.7702 22.1989 99.7702 21.7614C99.7702 21.3239 99.7006 20.9162 99.5614 20.5384C99.4222 20.1605 99.2077 19.8551 98.918 19.6222C98.6282 19.3892 98.2589 19.2727 97.81 19.2727C97.3612 19.2727 96.9918 19.3892 96.7021 19.6222C96.4123 19.8551 96.1978 20.1605 96.0586 20.5384C95.9194 20.9162 95.8498 21.3239 95.8498 21.7614C95.8498 22.1989 95.9194 22.6051 96.0586 22.9801C96.1978 23.3551 96.4123 23.6577 96.7021 23.8878C96.9918 24.1179 97.3612 24.233 97.81 24.233ZM103.817 21.0625V25H102.811V18.4545H103.783V19.4773H103.868C104.021 19.1449 104.254 18.8778 104.567 18.6761C104.879 18.4716 105.283 18.3693 105.777 18.3693C106.22 18.3693 106.608 18.4602 106.94 18.642C107.273 18.821 107.531 19.0938 107.716 19.4602C107.901 19.8239 107.993 20.2841 107.993 20.8409V25H106.987V20.9091C106.987 20.3949 106.854 19.9943 106.587 19.7074C106.32 19.4176 105.953 19.2727 105.487 19.2727C105.166 19.2727 104.879 19.3423 104.626 19.4815C104.376 19.6207 104.179 19.8239 104.034 20.0909C103.889 20.358 103.817 20.6818 103.817 21.0625ZM112.99 25.1364C112.376 25.1364 111.848 24.9915 111.404 24.7017C110.961 24.4119 110.62 24.0128 110.382 23.5043C110.143 22.9957 110.024 22.4148 110.024 21.7614C110.024 21.0966 110.146 20.5099 110.39 20.0014C110.637 19.4901 110.981 19.0909 111.422 18.804C111.865 18.5142 112.382 18.3693 112.973 18.3693C113.433 18.3693 113.848 18.4545 114.217 18.625C114.586 18.7955 114.889 19.0341 115.125 19.3409C115.36 19.6477 115.507 20.0057 115.564 20.4148H114.558C114.481 20.1165 114.311 19.8523 114.047 19.6222C113.785 19.3892 113.433 19.2727 112.99 19.2727C112.598 19.2727 112.254 19.375 111.958 19.5795C111.666 19.7812 111.437 20.0668 111.272 20.4361C111.11 20.8026 111.029 21.233 111.029 21.7273C111.029 22.233 111.109 22.6733 111.268 23.0483C111.43 23.4233 111.657 23.7145 111.95 23.9219C112.245 24.1293 112.592 24.233 112.99 24.233C113.251 24.233 113.488 24.1875 113.701 24.0966C113.914 24.0057 114.095 23.875 114.243 23.7045C114.39 23.5341 114.495 23.3295 114.558 23.0909H115.564C115.507 23.4773 115.366 23.8253 115.142 24.1349C114.92 24.4418 114.626 24.6861 114.26 24.8679C113.896 25.0469 113.473 25.1364 112.99 25.1364ZM120.193 25.1364C119.602 25.1364 119.083 24.9957 118.637 24.7145C118.194 24.4332 117.848 24.0398 117.598 23.5341C117.35 23.0284 117.227 22.4375 117.227 21.7614C117.227 21.0795 117.35 20.4844 117.598 19.9759C117.848 19.4673 118.194 19.0724 118.637 18.7912C119.083 18.5099 119.602 18.3693 120.193 18.3693C120.784 18.3693 121.301 18.5099 121.744 18.7912C122.19 19.0724 122.537 19.4673 122.784 19.9759C123.034 20.4844 123.159 21.0795 123.159 21.7614C123.159 22.4375 123.034 23.0284 122.784 23.5341C122.537 24.0398 122.19 24.4332 121.744 24.7145C121.301 24.9957 120.784 25.1364 120.193 25.1364ZM120.193 24.233C120.642 24.233 121.011 24.1179 121.301 23.8878C121.591 23.6577 121.805 23.3551 121.944 22.9801C122.083 22.6051 122.153 22.1989 122.153 21.7614C122.153 21.3239 122.083 20.9162 121.944 20.5384C121.805 20.1605 121.591 19.8551 121.301 19.6222C121.011 19.3892 120.642 19.2727 120.193 19.2727C119.744 19.2727 119.375 19.3892 119.085 19.6222C118.795 19.8551 118.581 20.1605 118.441 20.5384C118.302 20.9162 118.233 21.3239 118.233 21.7614C118.233 22.1989 118.302 22.6051 118.441 22.9801C118.581 23.3551 118.795 23.6577 119.085 23.8878C119.375 24.1179 119.744 24.233 120.193 24.233ZM125.194 25V18.4545H126.165V19.4432H126.234C126.353 19.1193 126.569 18.8565 126.881 18.6548C127.194 18.4531 127.546 18.3523 127.938 18.3523C128.012 18.3523 128.104 18.3537 128.215 18.3565C128.326 18.3594 128.41 18.3636 128.467 18.3693V19.392C128.433 19.3835 128.354 19.3707 128.232 19.3537C128.113 19.3338 127.987 19.3239 127.853 19.3239C127.535 19.3239 127.251 19.3906 127.001 19.5241C126.754 19.6548 126.558 19.8366 126.413 20.0696C126.271 20.2997 126.2 20.5625 126.2 20.858V25H125.194ZM136.744 25.1193C136.244 25.1193 135.794 25.0199 135.393 24.821C134.993 24.6222 134.672 24.3494 134.43 24.0028C134.189 23.6562 134.056 23.2614 134.034 22.8182H135.056C135.096 23.2131 135.275 23.5398 135.593 23.7983C135.914 24.054 136.298 24.1818 136.744 24.1818C137.102 24.1818 137.42 24.098 137.699 23.9304C137.98 23.7628 138.2 23.5327 138.359 23.2401C138.521 22.9446 138.602 22.6108 138.602 22.2386C138.602 21.858 138.518 21.5185 138.35 21.2202C138.186 20.919 137.958 20.6818 137.669 20.5085C137.379 20.3352 137.048 20.2472 136.676 20.2443C136.409 20.2415 136.135 20.2827 135.853 20.3679C135.572 20.4503 135.341 20.5568 135.159 20.6875L134.17 20.5682L134.699 16.2727H139.233V17.2102H135.585L135.278 19.7841H135.329C135.508 19.642 135.733 19.5241 136.002 19.4304C136.272 19.3366 136.554 19.2898 136.846 19.2898C137.38 19.2898 137.856 19.4176 138.274 19.6733C138.694 19.9261 139.024 20.2727 139.262 20.7131C139.504 21.1534 139.625 21.6562 139.625 22.2216C139.625 22.7784 139.5 23.2756 139.25 23.7131C139.002 24.1477 138.662 24.4915 138.227 24.7443C137.792 24.9943 137.298 25.1193 136.744 25.1193ZM148.641 25.1193C148.079 25.1193 147.577 25.0227 147.137 24.8295C146.7 24.6364 146.352 24.3679 146.093 24.0241C145.837 23.6776 145.698 23.2756 145.675 22.8182H146.749C146.772 23.0994 146.869 23.3423 147.039 23.5469C147.21 23.7486 147.433 23.9048 147.708 24.0156C147.984 24.1264 148.289 24.1818 148.624 24.1818C148.999 24.1818 149.332 24.1165 149.621 23.9858C149.911 23.8551 150.138 23.6733 150.303 23.4403C150.468 23.2074 150.55 22.9375 150.55 22.6307C150.55 22.3097 150.471 22.027 150.312 21.7827C150.153 21.5355 149.92 21.3423 149.613 21.2031C149.306 21.0639 148.931 20.9943 148.488 20.9943H147.789V20.0568H148.488C148.835 20.0568 149.138 19.9943 149.4 19.8693C149.664 19.7443 149.87 19.5682 150.018 19.3409C150.168 19.1136 150.244 18.8466 150.244 18.5398C150.244 18.2443 150.178 17.9872 150.048 17.7685C149.917 17.5497 149.732 17.3793 149.494 17.2571C149.258 17.1349 148.979 17.0739 148.658 17.0739C148.357 17.0739 148.073 17.1293 147.806 17.2401C147.542 17.348 147.326 17.5057 147.158 17.7131C146.991 17.9176 146.9 18.1648 146.886 18.4545H145.863C145.88 17.9972 146.018 17.5966 146.276 17.2528C146.535 16.9062 146.873 16.6364 147.29 16.4432C147.711 16.25 148.173 16.1534 148.675 16.1534C149.215 16.1534 149.678 16.2628 150.065 16.4815C150.451 16.6974 150.748 16.983 150.955 17.3381C151.163 17.6932 151.266 18.0767 151.266 18.4886C151.266 18.9801 151.137 19.3991 150.879 19.7457C150.623 20.0923 150.275 20.3324 149.835 20.4659V20.5341C150.386 20.625 150.816 20.8594 151.126 21.2372C151.435 21.6122 151.59 22.0767 151.59 22.6307C151.59 23.1051 151.461 23.5312 151.202 23.9091C150.947 24.2841 150.597 24.5795 150.154 24.7955C149.711 25.0114 149.207 25.1193 148.641 25.1193ZM157.384 17.2102V16.2727H163.93V17.2102H161.185V25H160.129V17.2102H157.384ZM165.924 25V18.4545H166.93V25H165.924ZM166.436 17.3636C166.24 17.3636 166.071 17.2969 165.929 17.1634C165.789 17.0298 165.72 16.8693 165.72 16.6818C165.72 16.4943 165.789 16.3338 165.929 16.2003C166.071 16.0668 166.24 16 166.436 16C166.632 16 166.799 16.0668 166.939 16.2003C167.081 16.3338 167.152 16.4943 167.152 16.6818C167.152 16.8693 167.081 17.0298 166.939 17.1634C166.799 17.2969 166.632 17.3636 166.436 17.3636ZM169.272 25V18.4545H170.244V19.4773H170.329C170.465 19.1278 170.685 18.8565 170.989 18.6634C171.293 18.4673 171.658 18.3693 172.085 18.3693C172.516 18.3693 172.876 18.4673 173.163 18.6634C173.452 18.8565 173.678 19.1278 173.84 19.4773H173.908C174.076 19.1392 174.327 18.8707 174.663 18.6719C174.998 18.4702 175.4 18.3693 175.869 18.3693C176.454 18.3693 176.933 18.5526 177.305 18.919C177.677 19.2827 177.863 19.8494 177.863 20.6193V25H176.857V20.6193C176.857 20.1364 176.725 19.7912 176.461 19.5838C176.197 19.3764 175.886 19.2727 175.528 19.2727C175.067 19.2727 174.711 19.4119 174.458 19.6903C174.205 19.9659 174.079 20.3153 174.079 20.7386V25H173.056V20.517C173.056 20.1449 172.935 19.8452 172.694 19.6179C172.452 19.3878 172.141 19.2727 171.761 19.2727C171.499 19.2727 171.255 19.3423 171.028 19.4815C170.803 19.6207 170.621 19.8139 170.482 20.0611C170.346 20.3054 170.278 20.5881 170.278 20.9091V25H169.272ZM182.946 25.1364C182.315 25.1364 181.771 24.9972 181.314 24.7188C180.859 24.4375 180.509 24.0455 180.261 23.5426C180.017 23.0369 179.895 22.4489 179.895 21.7784C179.895 21.108 180.017 20.517 180.261 20.0057C180.509 19.4915 180.852 19.0909 181.293 18.804C181.736 18.5142 182.253 18.3693 182.844 18.3693C183.185 18.3693 183.521 18.4261 183.854 18.5398C184.186 18.6534 184.489 18.8381 184.761 19.0938C185.034 19.3466 185.251 19.6818 185.413 20.0994C185.575 20.517 185.656 21.0312 185.656 21.642V22.0682H180.611V21.1989H184.634C184.634 20.8295 184.56 20.5 184.412 20.2102C184.267 19.9205 184.06 19.6918 183.79 19.5241C183.523 19.3565 183.207 19.2727 182.844 19.2727C182.443 19.2727 182.097 19.3722 181.804 19.571C181.514 19.767 181.291 20.0227 181.135 20.3381C180.979 20.6534 180.901 20.9915 180.901 21.3523V21.9318C180.901 22.4261 180.986 22.8452 181.156 23.1889C181.33 23.5298 181.57 23.7898 181.876 23.9688C182.183 24.1449 182.54 24.233 182.946 24.233C183.21 24.233 183.449 24.196 183.662 24.1222C183.878 24.0455 184.064 23.9318 184.22 23.7812C184.376 23.6278 184.497 23.4375 184.582 23.2102L185.554 23.483C185.452 23.8125 185.28 24.1023 185.038 24.3523C184.797 24.5994 184.499 24.7926 184.143 24.9318C183.788 25.0682 183.389 25.1364 182.946 25.1364ZM192.322 19.9205L191.419 20.1761C191.362 20.0256 191.278 19.8793 191.168 19.7372C191.06 19.5923 190.912 19.473 190.724 19.3793C190.537 19.2855 190.297 19.2386 190.004 19.2386C189.604 19.2386 189.27 19.331 189.003 19.5156C188.739 19.6974 188.607 19.929 188.607 20.2102C188.607 20.4602 188.697 20.6577 188.879 20.8026C189.061 20.9474 189.345 21.0682 189.732 21.1648L190.703 21.4034C191.288 21.5455 191.724 21.7628 192.011 22.0554C192.298 22.3452 192.442 22.7187 192.442 23.1761C192.442 23.5511 192.334 23.8864 192.118 24.1818C191.905 24.4773 191.607 24.7102 191.223 24.8807C190.839 25.0511 190.393 25.1364 189.885 25.1364C189.217 25.1364 188.665 24.9915 188.227 24.7017C187.79 24.4119 187.513 23.9886 187.396 23.4318L188.351 23.1932C188.442 23.5455 188.614 23.8097 188.866 23.9858C189.122 24.1619 189.456 24.25 189.868 24.25C190.337 24.25 190.709 24.1506 190.984 23.9517C191.263 23.75 191.402 23.5085 191.402 23.2273C191.402 23 191.322 22.8097 191.163 22.6562C191.004 22.5 190.76 22.3835 190.43 22.3068L189.339 22.0511C188.74 21.9091 188.3 21.6889 188.018 21.3906C187.74 21.0895 187.601 20.7131 187.601 20.2614C187.601 19.892 187.705 19.5653 187.912 19.2812C188.122 18.9972 188.408 18.7741 188.768 18.6122C189.132 18.4503 189.544 18.3693 190.004 18.3693C190.652 18.3693 191.161 18.5114 191.53 18.7955C191.902 19.0795 192.166 19.4545 192.322 19.9205ZM198.331 27.4545V18.4545H199.302V19.4943H199.422C199.495 19.3807 199.598 19.2358 199.728 19.0597C199.862 18.8807 200.052 18.7216 200.299 18.5824C200.549 18.4403 200.887 18.3693 201.314 18.3693C201.865 18.3693 202.35 18.5071 202.771 18.7827C203.191 19.0582 203.52 19.4489 203.755 19.9545C203.991 20.4602 204.109 21.0568 204.109 21.7443C204.109 22.4375 203.991 23.0384 203.755 23.5469C203.52 24.0526 203.193 24.4446 202.775 24.723C202.358 24.9986 201.876 25.1364 201.331 25.1364C200.91 25.1364 200.574 25.0668 200.321 24.9276C200.068 24.7855 199.873 24.625 199.737 24.446C199.6 24.2642 199.495 24.1136 199.422 23.9943H199.336V27.4545H198.331ZM199.319 21.7273C199.319 22.2216 199.392 22.6577 199.537 23.0355C199.681 23.4105 199.893 23.7045 200.172 23.9176C200.45 24.1278 200.791 24.233 201.194 24.233C201.615 24.233 201.966 24.1222 202.247 23.9006C202.531 23.6761 202.744 23.375 202.886 22.9972C203.031 22.6165 203.103 22.1932 203.103 21.7273C203.103 21.267 203.032 20.8523 202.89 20.483C202.751 20.1108 202.539 19.8168 202.255 19.6009C201.974 19.3821 201.62 19.2727 201.194 19.2727C200.785 19.2727 200.441 19.3764 200.163 19.5838C199.885 19.7884 199.674 20.0753 199.532 20.4446C199.39 20.8111 199.319 21.2386 199.319 21.7273ZM208.887 25.1364C208.257 25.1364 207.713 24.9972 207.255 24.7188C206.801 24.4375 206.45 24.0455 206.203 23.5426C205.958 23.0369 205.836 22.4489 205.836 21.7784C205.836 21.108 205.958 20.517 206.203 20.0057C206.45 19.4915 206.794 19.0909 207.234 18.804C207.677 18.5142 208.194 18.3693 208.785 18.3693C209.126 18.3693 209.463 18.4261 209.795 18.5398C210.127 18.6534 210.43 18.8381 210.703 19.0938C210.975 19.3466 211.193 19.6818 211.355 20.0994C211.517 20.517 211.598 21.0312 211.598 21.642V22.0682H206.552V21.1989H210.575C210.575 20.8295 210.501 20.5 210.353 20.2102C210.208 19.9205 210.001 19.6918 209.731 19.5241C209.464 19.3565 209.149 19.2727 208.785 19.2727C208.385 19.2727 208.038 19.3722 207.745 19.571C207.456 19.767 207.233 20.0227 207.076 20.3381C206.92 20.6534 206.842 20.9915 206.842 21.3523V21.9318C206.842 22.4261 206.927 22.8452 207.098 23.1889C207.271 23.5298 207.511 23.7898 207.818 23.9688C208.125 24.1449 208.481 24.233 208.887 24.233C209.152 24.233 209.39 24.196 209.603 24.1222C209.819 24.0455 210.005 23.9318 210.162 23.7812C210.318 23.6278 210.439 23.4375 210.524 23.2102L211.495 23.483C211.393 23.8125 211.221 24.1023 210.98 24.3523C210.738 24.5994 210.44 24.7926 210.085 24.9318C209.73 25.0682 209.331 25.1364 208.887 25.1364ZM213.627 25V18.4545H214.599V19.4432H214.667C214.787 19.1193 215.002 18.8565 215.315 18.6548C215.627 18.4531 215.98 18.3523 216.372 18.3523C216.446 18.3523 216.538 18.3537 216.649 18.3565C216.76 18.3594 216.843 18.3636 216.9 18.3693V19.392C216.866 19.3835 216.788 19.3707 216.666 19.3537C216.547 19.3338 216.42 19.3239 216.287 19.3239C215.968 19.3239 215.684 19.3906 215.434 19.5241C215.187 19.6548 214.991 19.8366 214.846 20.0696C214.704 20.2997 214.633 20.5625 214.633 20.858V25H213.627ZM224.939 25.1364C224.393 25.1364 223.912 24.9986 223.494 24.723C223.077 24.4446 222.75 24.0526 222.514 23.5469C222.278 23.0384 222.161 22.4375 222.161 21.7443C222.161 21.0568 222.278 20.4602 222.514 19.9545C222.75 19.4489 223.078 19.0582 223.499 18.7827C223.919 18.5071 224.405 18.3693 224.956 18.3693C225.382 18.3693 225.719 18.4403 225.966 18.5824C226.216 18.7216 226.406 18.8807 226.537 19.0597C226.67 19.2358 226.774 19.3807 226.848 19.4943H226.933V16.2727H227.939V25H226.967V23.9943H226.848C226.774 24.1136 226.669 24.2642 226.533 24.446C226.396 24.625 226.202 24.7855 225.949 24.9276C225.696 25.0668 225.359 25.1364 224.939 25.1364ZM225.075 24.233C225.479 24.233 225.82 24.1278 226.098 23.9176C226.376 23.7045 226.588 23.4105 226.733 23.0355C226.878 22.6577 226.95 22.2216 226.95 21.7273C226.95 21.2386 226.879 20.8111 226.737 20.4446C226.595 20.0753 226.385 19.7884 226.107 19.5838C225.828 19.3764 225.484 19.2727 225.075 19.2727C224.649 19.2727 224.294 19.3821 224.01 19.6009C223.729 19.8168 223.517 20.1108 223.375 20.483C223.236 20.8523 223.166 21.267 223.166 21.7273C223.166 22.1932 223.237 22.6165 223.379 22.9972C223.524 23.375 223.737 23.6761 224.018 23.9006C224.303 24.1222 224.655 24.233 225.075 24.233ZM232.347 25.1534C231.932 25.1534 231.555 25.0753 231.217 24.919C230.879 24.7599 230.611 24.5312 230.412 24.233C230.213 23.9318 230.114 23.5682 230.114 23.142C230.114 22.767 230.188 22.4631 230.335 22.2301C230.483 21.9943 230.68 21.8097 230.928 21.6761C231.175 21.5426 231.447 21.4432 231.746 21.3778C232.047 21.3097 232.349 21.2557 232.653 21.2159C233.051 21.1648 233.374 21.1264 233.621 21.1009C233.871 21.0724 234.053 21.0256 234.166 20.9602C234.283 20.8949 234.341 20.7812 234.341 20.6193V20.5852C234.341 20.1648 234.226 19.8381 233.996 19.6051C233.768 19.3722 233.423 19.2557 232.96 19.2557C232.48 19.2557 232.104 19.3608 231.831 19.571C231.558 19.7812 231.366 20.0057 231.256 20.2443L230.301 19.9034C230.472 19.5057 230.699 19.196 230.983 18.9744C231.27 18.75 231.582 18.5937 231.92 18.5057C232.261 18.4148 232.597 18.3693 232.926 18.3693C233.136 18.3693 233.378 18.3949 233.651 18.446C233.926 18.4943 234.192 18.5952 234.447 18.7486C234.706 18.902 234.92 19.1335 235.091 19.4432C235.261 19.7528 235.347 20.1676 235.347 20.6875V25H234.341V24.1136H234.29C234.222 24.2557 234.108 24.4077 233.949 24.5696C233.79 24.7315 233.578 24.8693 233.314 24.983C233.05 25.0966 232.727 25.1534 232.347 25.1534ZM232.5 24.25C232.898 24.25 233.233 24.1719 233.506 24.0156C233.781 23.8594 233.989 23.6577 234.128 23.4105C234.27 23.1634 234.341 22.9034 234.341 22.6307V21.7102C234.298 21.7614 234.205 21.8082 234.06 21.8509C233.918 21.8906 233.753 21.9261 233.565 21.9574C233.381 21.9858 233.2 22.0114 233.024 22.0341C232.851 22.054 232.71 22.071 232.602 22.0852C232.341 22.1193 232.097 22.1747 231.869 22.2514C231.645 22.3253 231.463 22.4375 231.324 22.5881C231.188 22.7358 231.119 22.9375 231.119 23.1932C231.119 23.5426 231.249 23.8068 231.507 23.9858C231.768 24.1619 232.099 24.25 232.5 24.25ZM238.096 27.4545C237.925 27.4545 237.773 27.4403 237.64 27.4119C237.506 27.3864 237.414 27.3608 237.363 27.3352L237.618 26.4489C237.863 26.5114 238.078 26.5341 238.266 26.517C238.453 26.5 238.62 26.4162 238.765 26.2656C238.912 26.1179 239.047 25.8778 239.169 25.5455L239.357 25.0341L236.936 18.4545H238.027L239.834 23.6705H239.902L241.709 18.4545H242.8L240.022 25.9545C239.897 26.2926 239.742 26.5724 239.557 26.794C239.373 27.0185 239.158 27.1847 238.914 27.2926C238.672 27.4006 238.4 27.4545 238.096 27.4545Z" fill="white"/>
<path d="M92.0002 38.3334C95.6868 38.3334 98.6668 41.3201 98.6668 45.0001C98.6668 48.6867 95.6868 51.6667 92.0002 51.6667C88.3202 51.6667 85.3335 48.6867 85.3335 45.0001C85.3335 41.3201 88.3202 38.3334 92.0002 38.3334ZM91.7668 41.6201C91.4935 41.6201 91.2668 41.8401 91.2668 42.1201V45.4867C91.2668 45.6601 91.3602 45.8201 91.5135 45.9134L94.1268 47.4734C94.2068 47.5201 94.2935 47.5467 94.3868 47.5467C94.5535 47.5467 94.7202 47.4601 94.8135 47.3001C94.9535 47.0667 94.8802 46.7601 94.6402 46.6134L92.2668 45.2001V42.1201C92.2668 41.8401 92.0402 41.6201 91.7668 41.6201Z" fill="white"/>
<path d="M109.21 49.0994C108.741 49.0994 108.324 49.0189 107.957 48.858C107.592 48.697 107.302 48.4732 107.087 48.1868C106.874 47.898 106.758 47.563 106.739 47.1818H107.634C107.652 47.4162 107.733 47.6186 107.875 47.7891C108.017 47.9571 108.203 48.0874 108.433 48.1797C108.662 48.272 108.917 48.3182 109.196 48.3182C109.509 48.3182 109.786 48.2637 110.027 48.1548C110.268 48.0459 110.458 47.8944 110.595 47.7003C110.732 47.5062 110.801 47.2812 110.801 47.0256C110.801 46.758 110.735 46.5225 110.602 46.3189C110.47 46.1129 110.276 45.9519 110.02 45.8359C109.764 45.7199 109.452 45.6619 109.082 45.6619H108.5V44.8807H109.082C109.371 44.8807 109.625 44.8286 109.842 44.7244C110.063 44.6203 110.234 44.4735 110.357 44.2841C110.483 44.0947 110.545 43.8722 110.545 43.6165C110.545 43.3703 110.491 43.156 110.382 42.9737C110.273 42.7914 110.119 42.6494 109.92 42.5476C109.724 42.4458 109.492 42.3949 109.224 42.3949C108.973 42.3949 108.737 42.4411 108.514 42.5334C108.294 42.6233 108.114 42.7547 107.974 42.9276C107.835 43.098 107.759 43.304 107.747 43.5455H106.895C106.909 43.1643 107.024 42.8305 107.239 42.544C107.455 42.2552 107.737 42.0303 108.085 41.8693C108.435 41.7083 108.82 41.6278 109.239 41.6278C109.688 41.6278 110.074 41.719 110.396 41.9013C110.718 42.0812 110.966 42.3191 111.138 42.6151C111.311 42.911 111.398 43.2306 111.398 43.5739C111.398 43.9834 111.29 44.3326 111.075 44.6214C110.862 44.9103 110.571 45.1103 110.205 45.2216V45.2784C110.664 45.3542 111.022 45.5495 111.281 45.8643C111.539 46.1768 111.668 46.5639 111.668 47.0256C111.668 47.4209 111.56 47.776 111.344 48.0909C111.131 48.4034 110.84 48.6496 110.471 48.8295C110.102 49.0095 109.681 49.0994 109.21 49.0994ZM114.02 49.0568C113.845 49.0568 113.695 48.9941 113.569 48.8686C113.444 48.7431 113.381 48.5928 113.381 48.4176C113.381 48.2424 113.444 48.0921 113.569 47.9666C113.695 47.8411 113.845 47.7784 114.02 47.7784C114.196 47.7784 114.346 47.8411 114.471 47.9666C114.597 48.0921 114.66 48.2424 114.66 48.4176C114.66 48.5336 114.63 48.6402 114.571 48.7372C114.514 48.8343 114.437 48.9124 114.34 48.9716C114.245 49.0284 114.139 49.0568 114.02 49.0568ZM118.768 49.0994C118.233 49.0994 117.777 48.9538 117.4 48.6626C117.024 48.3691 116.736 47.9441 116.537 47.3878C116.339 46.8291 116.239 46.1544 116.239 45.3636C116.239 44.5777 116.339 43.9065 116.537 43.3501C116.739 42.7914 117.028 42.3653 117.404 42.0717C117.783 41.7758 118.237 41.6278 118.768 41.6278C119.298 41.6278 119.751 41.7758 120.128 42.0717C120.506 42.3653 120.795 42.7914 120.994 43.3501C121.195 43.9065 121.296 44.5777 121.296 45.3636C121.296 46.1544 121.197 46.8291 120.998 47.3878C120.799 47.9441 120.511 48.3691 120.135 48.6626C119.758 48.9538 119.303 49.0994 118.768 49.0994ZM118.768 48.3182C119.298 48.3182 119.71 48.0625 120.003 47.5511C120.297 47.0398 120.444 46.3106 120.444 45.3636C120.444 44.7339 120.376 44.1977 120.241 43.755C120.109 43.3123 119.917 42.9749 119.666 42.7429C119.417 42.5109 119.118 42.3949 118.768 42.3949C118.242 42.3949 117.831 42.6541 117.535 43.1726C117.239 43.6887 117.091 44.419 117.091 45.3636C117.091 45.9934 117.158 46.5284 117.29 46.9688C117.423 47.4091 117.613 47.7441 117.862 47.9737C118.113 48.2034 118.415 48.3182 118.768 48.3182ZM125.518 49.0994C124.983 49.0994 124.527 48.9538 124.15 48.6626C123.774 48.3691 123.486 47.9441 123.287 47.3878C123.089 46.8291 122.989 46.1544 122.989 45.3636C122.989 44.5777 123.089 43.9065 123.287 43.3501C123.489 42.7914 123.778 42.3653 124.154 42.0717C124.533 41.7758 124.987 41.6278 125.518 41.6278C126.048 41.6278 126.501 41.7758 126.878 42.0717C127.256 42.3653 127.545 42.7914 127.744 43.3501C127.945 43.9065 128.046 44.5777 128.046 45.3636C128.046 46.1544 127.947 46.8291 127.748 47.3878C127.549 47.9441 127.261 48.3691 126.885 48.6626C126.508 48.9538 126.053 49.0994 125.518 49.0994ZM125.518 48.3182C126.048 48.3182 126.46 48.0625 126.753 47.5511C127.047 47.0398 127.194 46.3106 127.194 45.3636C127.194 44.7339 127.126 44.1977 126.991 43.755C126.859 43.3123 126.667 42.9749 126.416 42.7429C126.167 42.5109 125.868 42.3949 125.518 42.3949C124.992 42.3949 124.581 42.6541 124.285 43.1726C123.989 43.6887 123.841 44.419 123.841 45.3636C123.841 45.9934 123.908 46.5284 124.04 46.9688C124.173 47.4091 124.363 47.7441 124.612 47.9737C124.863 48.2034 125.165 48.3182 125.518 48.3182ZM133.336 49V41.7273H135.793C136.364 41.7273 136.83 41.8303 137.192 42.0362C137.557 42.2398 137.827 42.5156 138.002 42.8636C138.177 43.2116 138.265 43.5999 138.265 44.0284C138.265 44.4569 138.177 44.8464 138.002 45.1967C137.829 45.5471 137.562 45.8265 137.199 46.0348C136.837 46.2408 136.373 46.3438 135.807 46.3438H134.046V45.5625H135.779C136.17 45.5625 136.483 45.495 136.72 45.3601C136.957 45.2251 137.128 45.0429 137.235 44.8132C137.344 44.5812 137.398 44.3196 137.398 44.0284C137.398 43.7372 137.344 43.4768 137.235 43.2472C137.128 43.0175 136.956 42.8376 136.716 42.7074C136.477 42.5748 136.16 42.5085 135.765 42.5085H134.216V49H133.336ZM140.183 41.7273H141.235L143.706 47.7642H143.791L146.263 41.7273H147.314V49H146.49V43.4744H146.419L144.146 49H143.351L141.078 43.4744H141.007V49H140.183V41.7273ZM155.904 44.973V45.7543H152.722V44.973H155.904ZM163.591 49.0994C163.293 49.0947 162.995 49.0379 162.697 48.929C162.398 48.8201 162.126 48.6366 161.88 48.3786C161.634 48.1181 161.436 47.7666 161.287 47.3239C161.138 46.8788 161.063 46.3201 161.063 45.6477C161.063 45.0038 161.123 44.4332 161.244 43.9361C161.365 43.4366 161.54 43.0163 161.77 42.6754C161.999 42.3321 162.276 42.0717 162.601 41.8942C162.927 41.7166 163.296 41.6278 163.705 41.6278C164.112 41.6278 164.474 41.7095 164.792 41.8729C165.111 42.0339 165.372 42.2588 165.573 42.5476C165.774 42.8364 165.904 43.169 165.964 43.5455H165.097C165.017 43.2187 164.86 42.9477 164.628 42.7322C164.396 42.5168 164.089 42.4091 163.705 42.4091C163.142 42.4091 162.698 42.6541 162.373 43.1442C162.051 43.6342 161.889 44.322 161.887 45.2074H161.944C162.076 45.0062 162.234 44.8345 162.416 44.6925C162.601 44.5481 162.804 44.4368 163.027 44.3587C163.249 44.2805 163.485 44.2415 163.733 44.2415C164.15 44.2415 164.531 44.3456 164.877 44.554C165.223 44.7599 165.5 45.0452 165.708 45.4098C165.916 45.772 166.02 46.1875 166.02 46.6562C166.02 47.1061 165.92 47.518 165.719 47.892C165.517 48.2637 165.234 48.5597 164.87 48.7798C164.508 48.9976 164.081 49.1042 163.591 49.0994ZM163.591 48.3182C163.89 48.3182 164.157 48.2436 164.394 48.0945C164.633 47.9453 164.821 47.7453 164.959 47.4943C165.098 47.2434 165.168 46.964 165.168 46.6562C165.168 46.3556 165.101 46.0821 164.966 45.8359C164.833 45.5874 164.65 45.3897 164.415 45.2429C164.183 45.0961 163.918 45.0227 163.62 45.0227C163.395 45.0227 163.185 45.0677 162.991 45.1577C162.797 45.2453 162.627 45.366 162.48 45.5199C162.336 45.6738 162.222 45.8501 162.139 46.049C162.056 46.2455 162.015 46.4527 162.015 46.6705C162.015 46.9593 162.082 47.2292 162.217 47.4801C162.354 47.7311 162.541 47.9335 162.778 48.0874C163.017 48.2412 163.288 48.3182 163.591 48.3182ZM168.2 49.0568C168.025 49.0568 167.875 48.9941 167.749 48.8686C167.624 48.7431 167.561 48.5928 167.561 48.4176C167.561 48.2424 167.624 48.0921 167.749 47.9666C167.875 47.8411 168.025 47.7784 168.2 47.7784C168.375 47.7784 168.526 47.8411 168.651 47.9666C168.777 48.0921 168.839 48.2424 168.839 48.4176C168.839 48.5336 168.81 48.6402 168.751 48.7372C168.694 48.8343 168.617 48.9124 168.52 48.9716C168.425 49.0284 168.318 49.0568 168.2 49.0568ZM172.947 49.0994C172.412 49.0994 171.956 48.9538 171.58 48.6626C171.204 48.3691 170.916 47.9441 170.717 47.3878C170.518 46.8291 170.419 46.1544 170.419 45.3636C170.419 44.5777 170.518 43.9065 170.717 43.3501C170.918 42.7914 171.207 42.3653 171.584 42.0717C171.962 41.7758 172.417 41.6278 172.947 41.6278C173.478 41.6278 173.931 41.7758 174.307 42.0717C174.686 42.3653 174.975 42.7914 175.174 43.3501C175.375 43.9065 175.476 44.5777 175.476 45.3636C175.476 46.1544 175.376 46.8291 175.177 47.3878C174.979 47.9441 174.691 48.3691 174.314 48.6626C173.938 48.9538 173.482 49.0994 172.947 49.0994ZM172.947 48.3182C173.478 48.3182 173.89 48.0625 174.183 47.5511C174.477 47.0398 174.623 46.3106 174.623 45.3636C174.623 44.7339 174.556 44.1977 174.421 43.755C174.288 43.3123 174.097 42.9749 173.846 42.7429C173.597 42.5109 173.298 42.3949 172.947 42.3949C172.422 42.3949 172.011 42.6541 171.715 43.1726C171.419 43.6887 171.271 44.419 171.271 45.3636C171.271 45.9934 171.337 46.5284 171.47 46.9688C171.603 47.4091 171.793 47.7441 172.042 47.9737C172.293 48.2034 172.595 48.3182 172.947 48.3182ZM179.697 49.0994C179.162 49.0994 178.706 48.9538 178.33 48.6626C177.954 48.3691 177.666 47.9441 177.467 47.3878C177.268 46.8291 177.169 46.1544 177.169 45.3636C177.169 44.5777 177.268 43.9065 177.467 43.3501C177.668 42.7914 177.957 42.3653 178.334 42.0717C178.712 41.7758 179.167 41.6278 179.697 41.6278C180.228 41.6278 180.681 41.7758 181.057 42.0717C181.436 42.3653 181.725 42.7914 181.924 43.3501C182.125 43.9065 182.226 44.5777 182.226 45.3636C182.226 46.1544 182.126 46.8291 181.927 47.3878C181.729 47.9441 181.441 48.3691 181.064 48.6626C180.688 48.9538 180.232 49.0994 179.697 49.0994ZM179.697 48.3182C180.228 48.3182 180.64 48.0625 180.933 47.5511C181.227 47.0398 181.373 46.3106 181.373 45.3636C181.373 44.7339 181.306 44.1977 181.171 43.755C181.038 43.3123 180.847 42.9749 180.596 42.7429C180.347 42.5109 180.048 42.3949 179.697 42.3949C179.172 42.3949 178.761 42.6541 178.465 43.1726C178.169 43.6887 178.021 44.419 178.021 45.3636C178.021 45.9934 178.087 46.5284 178.22 46.9688C178.353 47.4091 178.543 47.7441 178.792 47.9737C179.043 48.2034 179.345 48.3182 179.697 48.3182ZM187.515 49V41.7273H189.973C190.543 41.7273 191.01 41.8303 191.372 42.0362C191.737 42.2398 192.006 42.5156 192.182 42.8636C192.357 43.2116 192.444 43.5999 192.444 44.0284C192.444 44.4569 192.357 44.8464 192.182 45.1967C192.009 45.5471 191.741 45.8265 191.379 46.0348C191.017 46.2408 190.553 46.3438 189.987 46.3438H188.226V45.5625H189.959C190.349 45.5625 190.663 45.495 190.9 45.3601C191.136 45.2251 191.308 45.0429 191.415 44.8132C191.523 44.5812 191.578 44.3196 191.578 44.0284C191.578 43.7372 191.523 43.4768 191.415 43.2472C191.308 43.0175 191.135 42.8376 190.896 42.7074C190.657 42.5748 190.34 42.5085 189.944 42.5085H188.396V49H187.515ZM194.363 41.7273H195.414L197.886 47.7642H197.971L200.443 41.7273H201.494V49H200.67V43.4744H200.599L198.326 49H197.531L195.258 43.4744H195.187V49H194.363V41.7273ZM210.083 44.973V45.7543H206.902V44.973H210.083ZM217.672 41.6278C217.97 41.6302 218.268 41.687 218.567 41.7983C218.865 41.9096 219.137 42.0942 219.383 42.3523C219.63 42.608 219.827 42.9571 219.976 43.3999C220.126 43.8426 220.2 44.3977 220.2 45.0653C220.2 45.7116 220.139 46.2857 220.015 46.7876C219.895 47.2872 219.72 47.7086 219.49 48.0518C219.263 48.3951 218.986 48.6555 218.659 48.8331C218.335 49.0107 217.968 49.0994 217.558 49.0994C217.151 49.0994 216.787 49.0189 216.468 48.858C216.151 48.6946 215.89 48.4685 215.687 48.1797C215.485 47.8885 215.356 47.5511 215.3 47.1676H216.166C216.244 47.5014 216.399 47.7772 216.631 47.995C216.866 48.2105 217.175 48.3182 217.558 48.3182C218.119 48.3182 218.562 48.0732 218.886 47.5831C219.213 47.093 219.376 46.4006 219.376 45.5057H219.319C219.187 45.7045 219.029 45.8762 218.847 46.0206C218.665 46.165 218.462 46.2763 218.24 46.3544C218.017 46.4325 217.781 46.4716 217.53 46.4716C217.113 46.4716 216.731 46.3686 216.383 46.1626C216.037 45.9543 215.76 45.669 215.552 45.3068C215.346 44.9422 215.243 44.5256 215.243 44.0568C215.243 43.6117 215.342 43.2045 215.541 42.8352C215.742 42.4635 216.024 42.1676 216.386 41.9474C216.751 41.7273 217.179 41.6207 217.672 41.6278ZM217.672 42.4091C217.373 42.4091 217.105 42.4837 216.866 42.6328C216.629 42.7796 216.441 42.9785 216.301 43.2294C216.164 43.478 216.095 43.7538 216.095 44.0568C216.095 44.3598 216.161 44.6357 216.294 44.8842C216.429 45.1304 216.612 45.3269 216.844 45.4737C217.079 45.6181 217.345 45.6903 217.643 45.6903C217.868 45.6903 218.078 45.6465 218.272 45.5589C218.466 45.469 218.635 45.3471 218.78 45.1932C218.926 45.0369 219.041 44.8606 219.124 44.6641C219.207 44.4652 219.248 44.258 219.248 44.0426C219.248 43.7585 219.18 43.4922 219.042 43.2436C218.907 42.995 218.72 42.7938 218.481 42.6399C218.245 42.486 217.975 42.4091 217.672 42.4091ZM222.468 49.0568C222.292 49.0568 222.142 48.9941 222.017 48.8686C221.891 48.7431 221.828 48.5928 221.828 48.4176C221.828 48.2424 221.891 48.0921 222.017 47.9666C222.142 47.8411 222.292 47.7784 222.468 47.7784C222.643 47.7784 222.793 47.8411 222.919 47.9666C223.044 48.0921 223.107 48.2424 223.107 48.4176C223.107 48.5336 223.077 48.6402 223.018 48.7372C222.961 48.8343 222.884 48.9124 222.787 48.9716C222.693 49.0284 222.586 49.0568 222.468 49.0568ZM227.215 49.0994C226.68 49.0994 226.224 48.9538 225.848 48.6626C225.471 48.3691 225.184 47.9441 224.985 47.3878C224.786 46.8291 224.686 46.1544 224.686 45.3636C224.686 44.5777 224.786 43.9065 224.985 43.3501C225.186 42.7914 225.475 42.3653 225.851 42.0717C226.23 41.7758 226.685 41.6278 227.215 41.6278C227.745 41.6278 228.199 41.7758 228.575 42.0717C228.954 42.3653 229.243 42.7914 229.441 43.3501C229.643 43.9065 229.743 44.5777 229.743 45.3636C229.743 46.1544 229.644 46.8291 229.445 47.3878C229.246 47.9441 228.958 48.3691 228.582 48.6626C228.206 48.9538 227.75 49.0994 227.215 49.0994ZM227.215 48.3182C227.745 48.3182 228.157 48.0625 228.451 47.5511C228.744 47.0398 228.891 46.3106 228.891 45.3636C228.891 44.7339 228.824 44.1977 228.689 43.755C228.556 43.3123 228.364 42.9749 228.113 42.7429C227.865 42.5109 227.565 42.3949 227.215 42.3949C226.689 42.3949 226.279 42.6541 225.983 43.1726C225.687 43.6887 225.539 44.419 225.539 45.3636C225.539 45.9934 225.605 46.5284 225.738 46.9688C225.87 47.4091 226.061 47.7441 226.309 47.9737C226.56 48.2034 226.862 48.3182 227.215 48.3182ZM233.965 49.0994C233.43 49.0994 232.974 48.9538 232.598 48.6626C232.221 48.3691 231.934 47.9441 231.735 47.3878C231.536 46.8291 231.436 46.1544 231.436 45.3636C231.436 44.5777 231.536 43.9065 231.735 43.3501C231.936 42.7914 232.225 42.3653 232.601 42.0717C232.98 41.7758 233.435 41.6278 233.965 41.6278C234.495 41.6278 234.949 41.7758 235.325 42.0717C235.704 42.3653 235.993 42.7914 236.191 43.3501C236.393 43.9065 236.493 44.5777 236.493 45.3636C236.493 46.1544 236.394 46.8291 236.195 47.3878C235.996 47.9441 235.708 48.3691 235.332 48.6626C234.956 48.9538 234.5 49.0994 233.965 49.0994ZM233.965 48.3182C234.495 48.3182 234.907 48.0625 235.201 47.5511C235.494 47.0398 235.641 46.3106 235.641 45.3636C235.641 44.7339 235.574 44.1977 235.439 43.755C235.306 43.3123 235.114 42.9749 234.863 42.7429C234.615 42.5109 234.315 42.3949 233.965 42.3949C233.439 42.3949 233.029 42.6541 232.733 43.1726C232.437 43.6887 232.289 44.419 232.289 45.3636C232.289 45.9934 232.355 46.5284 232.488 46.9688C232.62 47.4091 232.811 47.7441 233.059 47.9737C233.31 48.2034 233.612 48.3182 233.965 48.3182ZM241.783 49V41.7273H244.24C244.811 41.7273 245.277 41.8303 245.64 42.0362C246.004 42.2398 246.274 42.5156 246.449 42.8636C246.624 43.2116 246.712 43.5999 246.712 44.0284C246.712 44.4569 246.624 44.8464 246.449 45.1967C246.276 45.5471 246.009 45.8265 245.647 46.0348C245.284 46.2408 244.82 46.3438 244.255 46.3438H242.493V45.5625H244.226C244.617 45.5625 244.931 45.495 245.167 45.3601C245.404 45.2251 245.576 45.0429 245.682 44.8132C245.791 44.5812 245.846 44.3196 245.846 44.0284C245.846 43.7372 245.791 43.4768 245.682 43.2472C245.576 43.0175 245.403 42.8376 245.164 42.7074C244.925 42.5748 244.607 42.5085 244.212 42.5085H242.664V49H241.783ZM248.631 41.7273H249.682L252.153 47.7642H252.239L254.71 41.7273H255.761V49H254.938V43.4744H254.866L252.594 49H251.798L249.526 43.4744H249.455V49H248.631V41.7273Z" fill="white"/>
<rect x="10" y="8" width="48" height="48" rx="10" fill="#015C92"/>
<path fill-rule="evenodd" clip-rule="evenodd" d="M28.8001 21.6C28.4553 21.6 28.1247 21.737 27.8809 21.9808C27.6371 22.2246 27.5001 22.5552 27.5001 22.9V24.2H26.2001C25.5105 24.2 24.8492 24.4739 24.3616 24.9615C23.874 25.4491 23.6001 26.1104 23.6001 26.8V39.8C23.6001 40.4896 23.874 41.1509 24.3616 41.6385C24.8492 42.1261 25.5105 42.4 26.2001 42.4H41.8001C42.4897 42.4 43.151 42.1261 43.6386 41.6385C44.1262 41.1509 44.4001 40.4896 44.4001 39.8V26.8C44.4001 26.1104 44.1262 25.4491 43.6386 24.9615C43.151 24.4739 42.4897 24.2 41.8001 24.2H40.5001V22.9C40.5001 22.5552 40.3631 22.2246 40.1193 21.9808C39.8755 21.737 39.5449 21.6 39.2001 21.6C38.8553 21.6 38.5247 21.737 38.2809 21.9808C38.0371 22.2246 37.9001 22.5552 37.9001 22.9V24.2H30.1001V22.9C30.1001 22.5552 29.9631 22.2246 29.7193 21.9808C29.4755 21.737 29.1449 21.6 28.8001 21.6ZM28.8001 28.1C28.4553 28.1 28.1247 28.237 27.8809 28.4808C27.6371 28.7246 27.5001 29.0552 27.5001 29.4C27.5001 29.7448 27.6371 30.0754 27.8809 30.3192C28.1247 30.563 28.4553 30.7 28.8001 30.7H39.2001C39.5449 30.7 39.8755 30.563 40.1193 30.3192C40.3631 30.0754 40.5001 29.7448 40.5001 29.4C40.5001 29.0552 40.3631 28.7246 40.1193 28.4808C39.8755 28.237 39.5449 28.1 39.2001 28.1H28.8001Z" fill="white"/>
</svg>
