<svg width="42" height="42" viewBox="0 0 42 42" fill="none" xmlns="http://www.w3.org/2000/svg">
<g clip-path="url(#clip0_169_321)">
<path d="M8.18759 21.7309L21.8543 8.06356C23.44 6.47771 25.5908 5.58679 27.8334 5.58679C30.076 5.58679 32.2268 6.47771 33.8126 8.06356C35.3984 9.64941 36.2892 11.8003 36.2892 14.043C36.2892 16.2857 35.3984 18.4366 33.8126 20.0224L20.1459 33.6897C18.5601 35.2756 16.4094 36.1665 14.1668 36.1665C11.9241 36.1665 9.77336 35.2756 8.18759 33.6897C6.60182 32.1039 5.71094 29.953 5.71094 27.7103C5.71094 25.4676 6.60182 23.3167 8.18759 21.7309" stroke="#2D82B6" stroke-width="2" stroke-linecap="round" stroke-linejoin="round"/>
<path d="M15.021 14.8972L26.9793 26.8561" stroke="#2D82B6" stroke-width="2" stroke-linecap="round" stroke-linejoin="round"/>
</g>
<defs>
<clipPath id="clip0_169_321">
<rect width="41" height="41.0019" fill="white" transform="translate(0.5 0.375702)"/>
</clipPath>
</defs>
</svg>
