<svg width="327" height="64" viewBox="0 0 327 64" fill="none" xmlns="http://www.w3.org/2000/svg">
<rect width="327" height="64" rx="10" fill="#015C92"/>
<path d="M86.0568 25V16.2727H89.0057C89.6903 16.2727 90.25 16.3963 90.6847 16.6435C91.1222 16.8878 91.446 17.2188 91.6562 17.6364C91.8665 18.054 91.9716 18.5199 91.9716 19.0341C91.9716 19.5483 91.8665 20.0156 91.6562 20.4361C91.4489 20.8565 91.1278 21.1918 90.6932 21.4418C90.2585 21.6889 89.7017 21.8125 89.0227 21.8125H86.9091V20.875H88.9886C89.4574 20.875 89.8338 20.794 90.1179 20.6321C90.402 20.4702 90.608 20.2514 90.7358 19.9759C90.8665 19.6974 90.9318 19.3835 90.9318 19.0341C90.9318 18.6847 90.8665 18.3722 90.7358 18.0966C90.608 17.821 90.4006 17.6051 90.1136 17.4489C89.8267 17.2898 89.446 17.2102 88.9716 17.2102H87.1136V25H86.0568ZM95.9638 25.1534C95.549 25.1534 95.1726 25.0753 94.8345 24.919C94.4964 24.7599 94.228 24.5312 94.0291 24.233C93.8303 23.9318 93.7308 23.5682 93.7308 23.142C93.7308 22.767 93.8047 22.4631 93.9524 22.2301C94.1001 21.9943 94.2976 21.8097 94.5447 21.6761C94.7919 21.5426 95.0646 21.4432 95.3629 21.3778C95.6641 21.3097 95.9666 21.2557 96.2706 21.2159C96.6683 21.1648 96.9908 21.1264 97.2379 21.1009C97.4879 21.0724 97.6697 21.0256 97.7834 20.9602C97.8999 20.8949 97.9581 20.7812 97.9581 20.6193V20.5852C97.9581 20.1648 97.843 19.8381 97.6129 19.6051C97.3857 19.3722 97.0405 19.2557 96.5774 19.2557C96.0973 19.2557 95.7209 19.3608 95.4482 19.571C95.1754 19.7812 94.9837 20.0057 94.8729 20.2443L93.9183 19.9034C94.0888 19.5057 94.3161 19.196 94.6001 18.9744C94.8871 18.75 95.1996 18.5937 95.5376 18.5057C95.8786 18.4148 96.2138 18.3693 96.5433 18.3693C96.7536 18.3693 96.995 18.3949 97.2678 18.446C97.5433 18.4943 97.8089 18.5952 98.0646 18.7486C98.3232 18.902 98.5376 19.1335 98.7081 19.4432C98.8786 19.7528 98.9638 20.1676 98.9638 20.6875V25H97.9581V24.1136H97.907C97.8388 24.2557 97.7251 24.4077 97.5661 24.5696C97.407 24.7315 97.1953 24.8693 96.9311 24.983C96.6669 25.0966 96.3445 25.1534 95.9638 25.1534ZM96.1172 24.25C96.5149 24.25 96.8501 24.1719 97.1229 24.0156C97.3984 23.8594 97.6058 23.6577 97.745 23.4105C97.8871 23.1634 97.9581 22.9034 97.9581 22.6307V21.7102C97.9155 21.7614 97.8217 21.8082 97.6768 21.8509C97.5348 21.8906 97.37 21.9261 97.1825 21.9574C96.9979 21.9858 96.8175 22.0114 96.6413 22.0341C96.468 22.054 96.3274 22.071 96.2195 22.0852C95.9581 22.1193 95.7138 22.1747 95.4865 22.2514C95.2621 22.3253 95.0803 22.4375 94.9411 22.5881C94.8047 22.7358 94.7365 22.9375 94.7365 23.1932C94.7365 23.5426 94.8658 23.8068 95.1243 23.9858C95.3857 24.1619 95.7166 24.25 96.1172 24.25ZM102.305 21.0625V25H101.299V18.4545H102.271V19.4773H102.356C102.51 19.1449 102.743 18.8778 103.055 18.6761C103.368 18.4716 103.771 18.3693 104.265 18.3693C104.708 18.3693 105.096 18.4602 105.429 18.642C105.761 18.821 106.02 19.0938 106.204 19.4602C106.389 19.8239 106.481 20.2841 106.481 20.8409V25H105.475V20.9091C105.475 20.3949 105.342 19.9943 105.075 19.7074C104.808 19.4176 104.441 19.2727 103.975 19.2727C103.654 19.2727 103.368 19.3423 103.115 19.4815C102.865 19.6207 102.667 19.8239 102.522 20.0909C102.377 20.358 102.305 20.6818 102.305 21.0625ZM110.745 25.1534C110.33 25.1534 109.954 25.0753 109.616 24.919C109.278 24.7599 109.009 24.5312 108.81 24.233C108.612 23.9318 108.512 23.5682 108.512 23.142C108.512 22.767 108.586 22.4631 108.734 22.2301C108.881 21.9943 109.079 21.8097 109.326 21.6761C109.573 21.5426 109.846 21.4432 110.144 21.3778C110.445 21.3097 110.748 21.2557 111.052 21.2159C111.45 21.1648 111.772 21.1264 112.019 21.1009C112.269 21.0724 112.451 21.0256 112.565 20.9602C112.681 20.8949 112.739 20.7812 112.739 20.6193V20.5852C112.739 20.1648 112.624 19.8381 112.394 19.6051C112.167 19.3722 111.822 19.2557 111.359 19.2557C110.879 19.2557 110.502 19.3608 110.229 19.571C109.957 19.7812 109.765 20.0057 109.654 20.2443L108.7 19.9034C108.87 19.5057 109.097 19.196 109.381 18.9744C109.668 18.75 109.981 18.5937 110.319 18.5057C110.66 18.4148 110.995 18.3693 111.325 18.3693C111.535 18.3693 111.776 18.3949 112.049 18.446C112.325 18.4943 112.59 18.5952 112.846 18.7486C113.104 18.902 113.319 19.1335 113.489 19.4432C113.66 19.7528 113.745 20.1676 113.745 20.6875V25H112.739V24.1136H112.688C112.62 24.2557 112.506 24.4077 112.347 24.5696C112.188 24.7315 111.977 24.8693 111.712 24.983C111.448 25.0966 111.126 25.1534 110.745 25.1534ZM110.898 24.25C111.296 24.25 111.631 24.1719 111.904 24.0156C112.18 23.8594 112.387 23.6577 112.526 23.4105C112.668 23.1634 112.739 22.9034 112.739 22.6307V21.7102C112.697 21.7614 112.603 21.8082 112.458 21.8509C112.316 21.8906 112.151 21.9261 111.964 21.9574C111.779 21.9858 111.599 22.0114 111.423 22.0341C111.249 22.054 111.109 22.071 111.001 22.0852C110.739 22.1193 110.495 22.1747 110.268 22.2514C110.043 22.3253 109.862 22.4375 109.722 22.5881C109.586 22.7358 109.518 22.9375 109.518 23.1932C109.518 23.5426 109.647 23.8068 109.906 23.9858C110.167 24.1619 110.498 24.25 110.898 24.25ZM118.552 25.1364C118.007 25.1364 117.525 24.9986 117.108 24.723C116.69 24.4446 116.363 24.0526 116.127 23.5469C115.892 23.0384 115.774 22.4375 115.774 21.7443C115.774 21.0568 115.892 20.4602 116.127 19.9545C116.363 19.4489 116.691 19.0582 117.112 18.7827C117.532 18.5071 118.018 18.3693 118.569 18.3693C118.995 18.3693 119.332 18.4403 119.579 18.5824C119.829 18.7216 120.02 18.8807 120.15 19.0597C120.284 19.2358 120.387 19.3807 120.461 19.4943H120.547V16.2727H121.552V25H120.581V23.9943H120.461C120.387 24.1136 120.282 24.2642 120.146 24.446C120.01 24.625 119.815 24.7855 119.562 24.9276C119.309 25.0668 118.973 25.1364 118.552 25.1364ZM118.689 24.233C119.092 24.233 119.433 24.1278 119.711 23.9176C119.99 23.7045 120.201 23.4105 120.346 23.0355C120.491 22.6577 120.564 22.2216 120.564 21.7273C120.564 21.2386 120.493 20.8111 120.35 20.4446C120.208 20.0753 119.998 19.7884 119.72 19.5838C119.441 19.3764 119.098 19.2727 118.689 19.2727C118.262 19.2727 117.907 19.3821 117.623 19.6009C117.342 19.8168 117.13 20.1108 116.988 20.483C116.849 20.8523 116.779 21.267 116.779 21.7273C116.779 22.1932 116.85 22.6165 116.993 22.9972C117.137 23.375 117.35 23.6761 117.632 23.9006C117.916 24.1222 118.268 24.233 118.689 24.233ZM126.693 25.1364C126.102 25.1364 125.583 24.9957 125.137 24.7145C124.694 24.4332 124.348 24.0398 124.098 23.5341C123.85 23.0284 123.727 22.4375 123.727 21.7614C123.727 21.0795 123.85 20.4844 124.098 19.9759C124.348 19.4673 124.694 19.0724 125.137 18.7912C125.583 18.5099 126.102 18.3693 126.693 18.3693C127.284 18.3693 127.801 18.5099 128.244 18.7912C128.69 19.0724 129.037 19.4673 129.284 19.9759C129.534 20.4844 129.659 21.0795 129.659 21.7614C129.659 22.4375 129.534 23.0284 129.284 23.5341C129.037 24.0398 128.69 24.4332 128.244 24.7145C127.801 24.9957 127.284 25.1364 126.693 25.1364ZM126.693 24.233C127.142 24.233 127.511 24.1179 127.801 23.8878C128.091 23.6577 128.305 23.3551 128.444 22.9801C128.583 22.6051 128.653 22.1989 128.653 21.7614C128.653 21.3239 128.583 20.9162 128.444 20.5384C128.305 20.1605 128.091 19.8551 127.801 19.6222C127.511 19.3892 127.142 19.2727 126.693 19.2727C126.244 19.2727 125.875 19.3892 125.585 19.6222C125.295 19.8551 125.081 20.1605 124.941 20.5384C124.802 20.9162 124.733 21.3239 124.733 21.7614C124.733 22.1989 124.802 22.6051 124.941 22.9801C125.081 23.3551 125.295 23.6577 125.585 23.8878C125.875 24.1179 126.244 24.233 126.693 24.233ZM132.7 16.2727V25H131.694V16.2727H132.7ZM141.848 25.1193C141.286 25.1193 140.784 25.0227 140.344 24.8295C139.907 24.6364 139.559 24.3679 139.3 24.0241C139.044 23.6776 138.905 23.2756 138.882 22.8182H139.956C139.979 23.0994 140.076 23.3423 140.246 23.5469C140.417 23.7486 140.64 23.9048 140.915 24.0156C141.191 24.1264 141.496 24.1818 141.831 24.1818C142.206 24.1818 142.539 24.1165 142.828 23.9858C143.118 23.8551 143.346 23.6733 143.51 23.4403C143.675 23.2074 143.757 22.9375 143.757 22.6307C143.757 22.3097 143.678 22.027 143.519 21.7827C143.36 21.5355 143.127 21.3423 142.82 21.2031C142.513 21.0639 142.138 20.9943 141.695 20.9943H140.996V20.0568H141.695C142.042 20.0568 142.346 19.9943 142.607 19.8693C142.871 19.7443 143.077 19.5682 143.225 19.3409C143.375 19.1136 143.451 18.8466 143.451 18.5398C143.451 18.2443 143.385 17.9872 143.255 17.7685C143.124 17.5497 142.939 17.3793 142.701 17.2571C142.465 17.1349 142.186 17.0739 141.865 17.0739C141.564 17.0739 141.28 17.1293 141.013 17.2401C140.749 17.348 140.533 17.5057 140.365 17.7131C140.198 17.9176 140.107 18.1648 140.093 18.4545H139.07C139.087 17.9972 139.225 17.5966 139.483 17.2528C139.742 16.9062 140.08 16.6364 140.498 16.4432C140.918 16.25 141.38 16.1534 141.882 16.1534C142.422 16.1534 142.885 16.2628 143.272 16.4815C143.658 16.6974 143.955 16.983 144.162 17.3381C144.37 17.6932 144.473 18.0767 144.473 18.4886C144.473 18.9801 144.344 19.3991 144.086 19.7457C143.83 20.0923 143.482 20.3324 143.042 20.4659V20.5341C143.593 20.625 144.023 20.8594 144.333 21.2372C144.642 21.6122 144.797 22.0767 144.797 22.6307C144.797 23.1051 144.668 23.5312 144.409 23.9091C144.154 24.2841 143.804 24.5795 143.361 24.7955C142.918 25.0114 142.414 25.1193 141.848 25.1193ZM150.591 17.2102V16.2727H157.137V17.2102H154.392V25H153.336V17.2102H150.591ZM159.131 25V18.4545H160.137V25H159.131ZM159.643 17.3636C159.447 17.3636 159.278 17.2969 159.136 17.1634C158.996 17.0298 158.927 16.8693 158.927 16.6818C158.927 16.4943 158.996 16.3338 159.136 16.2003C159.278 16.0668 159.447 16 159.643 16C159.839 16 160.006 16.0668 160.146 16.2003C160.288 16.3338 160.359 16.4943 160.359 16.6818C160.359 16.8693 160.288 17.0298 160.146 17.1634C160.006 17.2969 159.839 17.3636 159.643 17.3636ZM162.479 25V18.4545H163.451V19.4773H163.536C163.672 19.1278 163.892 18.8565 164.196 18.6634C164.5 18.4673 164.865 18.3693 165.292 18.3693C165.723 18.3693 166.083 18.4673 166.37 18.6634C166.659 18.8565 166.885 19.1278 167.047 19.4773H167.115C167.283 19.1392 167.534 18.8707 167.87 18.6719C168.205 18.4702 168.607 18.3693 169.076 18.3693C169.661 18.3693 170.14 18.5526 170.512 18.919C170.884 19.2827 171.07 19.8494 171.07 20.6193V25H170.064V20.6193C170.064 20.1364 169.932 19.7912 169.668 19.5838C169.404 19.3764 169.093 19.2727 168.735 19.2727C168.275 19.2727 167.918 19.4119 167.665 19.6903C167.412 19.9659 167.286 20.3153 167.286 20.7386V25H166.263V20.517C166.263 20.1449 166.142 19.8452 165.901 19.6179C165.659 19.3878 165.348 19.2727 164.968 19.2727C164.706 19.2727 164.462 19.3423 164.235 19.4815C164.01 19.6207 163.828 19.8139 163.689 20.0611C163.553 20.3054 163.485 20.5881 163.485 20.9091V25H162.479ZM176.153 25.1364C175.522 25.1364 174.978 24.9972 174.521 24.7188C174.066 24.4375 173.716 24.0455 173.468 23.5426C173.224 23.0369 173.102 22.4489 173.102 21.7784C173.102 21.108 173.224 20.517 173.468 20.0057C173.716 19.4915 174.059 19.0909 174.5 18.804C174.943 18.5142 175.46 18.3693 176.051 18.3693C176.392 18.3693 176.728 18.4261 177.061 18.5398C177.393 18.6534 177.696 18.8381 177.968 19.0938C178.241 19.3466 178.458 19.6818 178.62 20.0994C178.782 20.517 178.863 21.0312 178.863 21.642V22.0682H173.818V21.1989H177.841C177.841 20.8295 177.767 20.5 177.619 20.2102C177.474 19.9205 177.267 19.6918 176.997 19.5241C176.73 19.3565 176.414 19.2727 176.051 19.2727C175.65 19.2727 175.304 19.3722 175.011 19.571C174.721 19.767 174.498 20.0227 174.342 20.3381C174.186 20.6534 174.108 20.9915 174.108 21.3523V21.9318C174.108 22.4261 174.193 22.8452 174.363 23.1889C174.537 23.5298 174.777 23.7898 175.083 23.9688C175.39 24.1449 175.747 24.233 176.153 24.233C176.417 24.233 176.656 24.196 176.869 24.1222C177.085 24.0455 177.271 23.9318 177.427 23.7812C177.583 23.6278 177.704 23.4375 177.789 23.2102L178.761 23.483C178.659 23.8125 178.487 24.1023 178.245 24.3523C178.004 24.5994 177.706 24.7926 177.35 24.9318C176.995 25.0682 176.596 25.1364 176.153 25.1364ZM185.529 19.9205L184.626 20.1761C184.569 20.0256 184.485 19.8793 184.375 19.7372C184.267 19.5923 184.119 19.473 183.931 19.3793C183.744 19.2855 183.504 19.2386 183.211 19.2386C182.811 19.2386 182.477 19.331 182.21 19.5156C181.946 19.6974 181.814 19.929 181.814 20.2102C181.814 20.4602 181.904 20.6577 182.086 20.8026C182.268 20.9474 182.552 21.0682 182.939 21.1648L183.91 21.4034C184.495 21.5455 184.931 21.7628 185.218 22.0554C185.505 22.3452 185.649 22.7187 185.649 23.1761C185.649 23.5511 185.541 23.8864 185.325 24.1818C185.112 24.4773 184.814 24.7102 184.43 24.8807C184.047 25.0511 183.6 25.1364 183.092 25.1364C182.424 25.1364 181.872 24.9915 181.434 24.7017C180.997 24.4119 180.72 23.9886 180.603 23.4318L181.558 23.1932C181.649 23.5455 181.821 23.8097 182.074 23.9858C182.329 24.1619 182.663 24.25 183.075 24.25C183.544 24.25 183.916 24.1506 184.191 23.9517C184.47 23.75 184.609 23.5085 184.609 23.2273C184.609 23 184.529 22.8097 184.37 22.6562C184.211 22.5 183.967 22.3835 183.637 22.3068L182.547 22.0511C181.947 21.9091 181.507 21.6889 181.225 21.3906C180.947 21.0895 180.808 20.7131 180.808 20.2614C180.808 19.892 180.912 19.5653 181.119 19.2812C181.329 18.9972 181.615 18.7741 181.975 18.6122C182.339 18.4503 182.751 18.3693 183.211 18.3693C183.859 18.3693 184.368 18.5114 184.737 18.7955C185.109 19.0795 185.373 19.4545 185.529 19.9205ZM191.538 27.4545V18.4545H192.509V19.4943H192.629C192.702 19.3807 192.805 19.2358 192.935 19.0597C193.069 18.8807 193.259 18.7216 193.506 18.5824C193.756 18.4403 194.094 18.3693 194.521 18.3693C195.072 18.3693 195.558 18.5071 195.978 18.7827C196.398 19.0582 196.727 19.4489 196.962 19.9545C197.198 20.4602 197.316 21.0568 197.316 21.7443C197.316 22.4375 197.198 23.0384 196.962 23.5469C196.727 24.0526 196.4 24.4446 195.982 24.723C195.565 24.9986 195.083 25.1364 194.538 25.1364C194.117 25.1364 193.781 25.0668 193.528 24.9276C193.275 24.7855 193.08 24.625 192.944 24.446C192.808 24.2642 192.702 24.1136 192.629 23.9943H192.543V27.4545H191.538ZM192.526 21.7273C192.526 22.2216 192.599 22.6577 192.744 23.0355C192.888 23.4105 193.1 23.7045 193.379 23.9176C193.657 24.1278 193.998 24.233 194.401 24.233C194.822 24.233 195.173 24.1222 195.454 23.9006C195.738 23.6761 195.951 23.375 196.093 22.9972C196.238 22.6165 196.31 22.1932 196.31 21.7273C196.31 21.267 196.239 20.8523 196.097 20.483C195.958 20.1108 195.746 19.8168 195.462 19.6009C195.181 19.3821 194.827 19.2727 194.401 19.2727C193.992 19.2727 193.648 19.3764 193.37 19.5838C193.092 19.7884 192.881 20.0753 192.739 20.4446C192.597 20.8111 192.526 21.2386 192.526 21.7273ZM202.094 25.1364C201.464 25.1364 200.92 24.9972 200.462 24.7188C200.008 24.4375 199.657 24.0455 199.41 23.5426C199.165 23.0369 199.043 22.4489 199.043 21.7784C199.043 21.108 199.165 20.517 199.41 20.0057C199.657 19.4915 200.001 19.0909 200.441 18.804C200.884 18.5142 201.401 18.3693 201.992 18.3693C202.333 18.3693 202.67 18.4261 203.002 18.5398C203.335 18.6534 203.637 18.8381 203.91 19.0938C204.183 19.3466 204.4 19.6818 204.562 20.0994C204.724 20.517 204.805 21.0312 204.805 21.642V22.0682H199.759V21.1989H203.782C203.782 20.8295 203.708 20.5 203.56 20.2102C203.415 19.9205 203.208 19.6918 202.938 19.5241C202.671 19.3565 202.356 19.2727 201.992 19.2727C201.592 19.2727 201.245 19.3722 200.952 19.571C200.663 19.767 200.44 20.0227 200.283 20.3381C200.127 20.6534 200.049 20.9915 200.049 21.3523V21.9318C200.049 22.4261 200.134 22.8452 200.305 23.1889C200.478 23.5298 200.718 23.7898 201.025 23.9688C201.332 24.1449 201.688 24.233 202.094 24.233C202.359 24.233 202.597 24.196 202.81 24.1222C203.026 24.0455 203.212 23.9318 203.369 23.7812C203.525 23.6278 203.646 23.4375 203.731 23.2102L204.702 23.483C204.6 23.8125 204.428 24.1023 204.187 24.3523C203.945 24.5994 203.647 24.7926 203.292 24.9318C202.937 25.0682 202.538 25.1364 202.094 25.1364ZM206.835 25V18.4545H207.806V19.4432H207.874C207.994 19.1193 208.21 18.8565 208.522 18.6548C208.835 18.4531 209.187 18.3523 209.579 18.3523C209.653 18.3523 209.745 18.3537 209.856 18.3565C209.967 18.3594 210.05 18.3636 210.107 18.3693V19.392C210.073 19.3835 209.995 19.3707 209.873 19.3537C209.754 19.3338 209.627 19.3239 209.494 19.3239C209.175 19.3239 208.891 19.3906 208.641 19.5241C208.394 19.6548 208.198 19.8366 208.053 20.0696C207.911 20.2997 207.84 20.5625 207.84 20.858V25H206.835ZM218.146 25.1364C217.6 25.1364 217.119 24.9986 216.701 24.723C216.284 24.4446 215.957 24.0526 215.721 23.5469C215.485 23.0384 215.368 22.4375 215.368 21.7443C215.368 21.0568 215.485 20.4602 215.721 19.9545C215.957 19.4489 216.285 19.0582 216.706 18.7827C217.126 18.5071 217.612 18.3693 218.163 18.3693C218.589 18.3693 218.926 18.4403 219.173 18.5824C219.423 18.7216 219.613 18.8807 219.744 19.0597C219.877 19.2358 219.981 19.3807 220.055 19.4943H220.14V16.2727H221.146V25H220.174V23.9943H220.055C219.981 24.1136 219.876 24.2642 219.74 24.446C219.603 24.625 219.409 24.7855 219.156 24.9276C218.903 25.0668 218.566 25.1364 218.146 25.1364ZM218.282 24.233C218.686 24.233 219.027 24.1278 219.305 23.9176C219.583 23.7045 219.795 23.4105 219.94 23.0355C220.085 22.6577 220.157 22.2216 220.157 21.7273C220.157 21.2386 220.086 20.8111 219.944 20.4446C219.802 20.0753 219.592 19.7884 219.314 19.5838C219.035 19.3764 218.691 19.2727 218.282 19.2727C217.856 19.2727 217.501 19.3821 217.217 19.6009C216.936 19.8168 216.724 20.1108 216.582 20.483C216.443 20.8523 216.373 21.267 216.373 21.7273C216.373 22.1932 216.444 22.6165 216.586 22.9972C216.731 23.375 216.944 23.6761 217.225 23.9006C217.51 24.1222 217.862 24.233 218.282 24.233ZM225.554 25.1534C225.139 25.1534 224.762 25.0753 224.424 24.919C224.086 24.7599 223.818 24.5312 223.619 24.233C223.42 23.9318 223.321 23.5682 223.321 23.142C223.321 22.767 223.395 22.4631 223.542 22.2301C223.69 21.9943 223.887 21.8097 224.135 21.6761C224.382 21.5426 224.654 21.4432 224.953 21.3778C225.254 21.3097 225.556 21.2557 225.86 21.2159C226.258 21.1648 226.581 21.1264 226.828 21.1009C227.078 21.0724 227.26 21.0256 227.373 20.9602C227.49 20.8949 227.548 20.7812 227.548 20.6193V20.5852C227.548 20.1648 227.433 19.8381 227.203 19.6051C226.975 19.3722 226.63 19.2557 226.167 19.2557C225.687 19.2557 225.311 19.3608 225.038 19.571C224.765 19.7812 224.574 20.0057 224.463 20.2443L223.508 19.9034C223.679 19.5057 223.906 19.196 224.19 18.9744C224.477 18.75 224.789 18.5937 225.127 18.5057C225.468 18.4148 225.804 18.3693 226.133 18.3693C226.343 18.3693 226.585 18.3949 226.858 18.446C227.133 18.4943 227.399 18.5952 227.654 18.7486C227.913 18.902 228.127 19.1335 228.298 19.4432C228.468 19.7528 228.554 20.1676 228.554 20.6875V25H227.548V24.1136H227.497C227.429 24.2557 227.315 24.4077 227.156 24.5696C226.997 24.7315 226.785 24.8693 226.521 24.983C226.257 25.0966 225.934 25.1534 225.554 25.1534ZM225.707 24.25C226.105 24.25 226.44 24.1719 226.713 24.0156C226.988 23.8594 227.196 23.6577 227.335 23.4105C227.477 23.1634 227.548 22.9034 227.548 22.6307V21.7102C227.505 21.7614 227.412 21.8082 227.267 21.8509C227.125 21.8906 226.96 21.9261 226.772 21.9574C226.588 21.9858 226.407 22.0114 226.231 22.0341C226.058 22.054 225.917 22.071 225.809 22.0852C225.548 22.1193 225.304 22.1747 225.076 22.2514C224.852 22.3253 224.67 22.4375 224.531 22.5881C224.395 22.7358 224.326 22.9375 224.326 23.1932C224.326 23.5426 224.456 23.8068 224.714 23.9858C224.975 24.1619 225.306 24.25 225.707 24.25ZM231.303 27.4545C231.132 27.4545 230.98 27.4403 230.847 27.4119C230.713 27.3864 230.621 27.3608 230.57 27.3352L230.825 26.4489C231.07 26.5114 231.286 26.5341 231.473 26.517C231.661 26.5 231.827 26.4162 231.972 26.2656C232.119 26.1179 232.254 25.8778 232.376 25.5455L232.564 25.0341L230.143 18.4545H231.234L233.041 23.6705H233.109L234.916 18.4545H236.007L233.229 25.9545C233.104 26.2926 232.949 26.5724 232.764 26.794C232.58 27.0185 232.365 27.1847 232.121 27.2926C231.879 27.4006 231.607 27.4545 231.303 27.4545Z" fill="white"/>
<path d="M92.0002 38.3334C95.6868 38.3334 98.6668 41.3201 98.6668 45.0001C98.6668 48.6868 95.6868 51.6668 92.0002 51.6668C88.3202 51.6668 85.3335 48.6868 85.3335 45.0001C85.3335 41.3201 88.3202 38.3334 92.0002 38.3334ZM91.7668 41.6201C91.4935 41.6201 91.2668 41.8401 91.2668 42.1201V45.4868C91.2668 45.6601 91.3602 45.8201 91.5135 45.9134L94.1268 47.4734C94.2068 47.5201 94.2935 47.5468 94.3868 47.5468C94.5535 47.5468 94.7202 47.4601 94.8135 47.3001C94.9535 47.0668 94.8802 46.7601 94.6402 46.6134L92.2668 45.2001V42.1201C92.2668 41.8401 92.0402 41.6201 91.7668 41.6201Z" fill="white"/>
<path d="M109.21 49.0994C108.741 49.0994 108.324 49.0189 107.957 48.858C107.592 48.697 107.302 48.4732 107.087 48.1868C106.874 47.898 106.758 47.563 106.739 47.1818H107.634C107.652 47.4162 107.733 47.6186 107.875 47.7891C108.017 47.9571 108.203 48.0874 108.433 48.1797C108.662 48.272 108.917 48.3182 109.196 48.3182C109.509 48.3182 109.786 48.2637 110.027 48.1548C110.268 48.0459 110.458 47.8944 110.595 47.7003C110.732 47.5062 110.801 47.2812 110.801 47.0256C110.801 46.758 110.735 46.5225 110.602 46.3189C110.47 46.1129 110.276 45.9519 110.02 45.8359C109.764 45.7199 109.452 45.6619 109.082 45.6619H108.5V44.8807H109.082C109.371 44.8807 109.625 44.8286 109.842 44.7244C110.063 44.6203 110.234 44.4735 110.357 44.2841C110.483 44.0947 110.545 43.8722 110.545 43.6165C110.545 43.3703 110.491 43.156 110.382 42.9737C110.273 42.7914 110.119 42.6494 109.92 42.5476C109.724 42.4458 109.492 42.3949 109.224 42.3949C108.973 42.3949 108.737 42.4411 108.514 42.5334C108.294 42.6233 108.114 42.7547 107.974 42.9276C107.835 43.098 107.759 43.304 107.747 43.5455H106.895C106.909 43.1643 107.024 42.8305 107.239 42.544C107.455 42.2552 107.737 42.0303 108.085 41.8693C108.435 41.7083 108.82 41.6278 109.239 41.6278C109.688 41.6278 110.074 41.719 110.396 41.9013C110.718 42.0812 110.966 42.3191 111.138 42.6151C111.311 42.911 111.398 43.2306 111.398 43.5739C111.398 43.9834 111.29 44.3326 111.075 44.6214C110.862 44.9103 110.571 45.1103 110.205 45.2216V45.2784C110.664 45.3542 111.022 45.5495 111.281 45.8643C111.539 46.1768 111.668 46.5639 111.668 47.0256C111.668 47.4209 111.56 47.776 111.344 48.0909C111.131 48.4034 110.84 48.6496 110.471 48.8295C110.102 49.0095 109.681 49.0994 109.21 49.0994ZM114.02 49.0568C113.845 49.0568 113.695 48.9941 113.569 48.8686C113.444 48.7431 113.381 48.5928 113.381 48.4176C113.381 48.2424 113.444 48.0921 113.569 47.9666C113.695 47.8411 113.845 47.7784 114.02 47.7784C114.196 47.7784 114.346 47.8411 114.471 47.9666C114.597 48.0921 114.66 48.2424 114.66 48.4176C114.66 48.5336 114.63 48.6402 114.571 48.7372C114.514 48.8343 114.437 48.9124 114.34 48.9716C114.245 49.0284 114.139 49.0568 114.02 49.0568ZM118.768 49.0994C118.233 49.0994 117.777 48.9538 117.4 48.6626C117.024 48.3691 116.736 47.9441 116.537 47.3878C116.339 46.8291 116.239 46.1544 116.239 45.3636C116.239 44.5777 116.339 43.9065 116.537 43.3501C116.739 42.7914 117.028 42.3653 117.404 42.0717C117.783 41.7758 118.237 41.6278 118.768 41.6278C119.298 41.6278 119.751 41.7758 120.128 42.0717C120.506 42.3653 120.795 42.7914 120.994 43.3501C121.195 43.9065 121.296 44.5777 121.296 45.3636C121.296 46.1544 121.197 46.8291 120.998 47.3878C120.799 47.9441 120.511 48.3691 120.135 48.6626C119.758 48.9538 119.303 49.0994 118.768 49.0994ZM118.768 48.3182C119.298 48.3182 119.71 48.0625 120.003 47.5511C120.297 47.0398 120.444 46.3106 120.444 45.3636C120.444 44.7339 120.376 44.1977 120.241 43.755C120.109 43.3123 119.917 42.9749 119.666 42.7429C119.417 42.5109 119.118 42.3949 118.768 42.3949C118.242 42.3949 117.831 42.6541 117.535 43.1726C117.239 43.6887 117.091 44.419 117.091 45.3636C117.091 45.9934 117.158 46.5284 117.29 46.9688C117.423 47.4091 117.613 47.7441 117.862 47.9737C118.113 48.2034 118.415 48.3182 118.768 48.3182ZM125.518 49.0994C124.983 49.0994 124.527 48.9538 124.15 48.6626C123.774 48.3691 123.486 47.9441 123.287 47.3878C123.089 46.8291 122.989 46.1544 122.989 45.3636C122.989 44.5777 123.089 43.9065 123.287 43.3501C123.489 42.7914 123.778 42.3653 124.154 42.0717C124.533 41.7758 124.987 41.6278 125.518 41.6278C126.048 41.6278 126.501 41.7758 126.878 42.0717C127.256 42.3653 127.545 42.7914 127.744 43.3501C127.945 43.9065 128.046 44.5777 128.046 45.3636C128.046 46.1544 127.947 46.8291 127.748 47.3878C127.549 47.9441 127.261 48.3691 126.885 48.6626C126.508 48.9538 126.053 49.0994 125.518 49.0994ZM125.518 48.3182C126.048 48.3182 126.46 48.0625 126.753 47.5511C127.047 47.0398 127.194 46.3106 127.194 45.3636C127.194 44.7339 127.126 44.1977 126.991 43.755C126.859 43.3123 126.667 42.9749 126.416 42.7429C126.167 42.5109 125.868 42.3949 125.518 42.3949C124.992 42.3949 124.581 42.6541 124.285 43.1726C123.989 43.6887 123.841 44.419 123.841 45.3636C123.841 45.9934 123.908 46.5284 124.04 46.9688C124.173 47.4091 124.363 47.7441 124.612 47.9737C124.863 48.2034 125.165 48.3182 125.518 48.3182ZM133.336 49V41.7273H135.793C136.364 41.7273 136.83 41.8303 137.192 42.0362C137.557 42.2398 137.827 42.5156 138.002 42.8636C138.177 43.2116 138.265 43.5999 138.265 44.0284C138.265 44.4569 138.177 44.8464 138.002 45.1967C137.829 45.5471 137.562 45.8265 137.199 46.0348C136.837 46.2408 136.373 46.3438 135.807 46.3438H134.046V45.5625H135.779C136.17 45.5625 136.483 45.495 136.72 45.3601C136.957 45.2251 137.128 45.0429 137.235 44.8132C137.344 44.5812 137.398 44.3196 137.398 44.0284C137.398 43.7372 137.344 43.4768 137.235 43.2472C137.128 43.0175 136.956 42.8376 136.716 42.7074C136.477 42.5748 136.16 42.5085 135.765 42.5085H134.216V49H133.336ZM140.183 41.7273H141.235L143.706 47.7642H143.791L146.263 41.7273H147.314V49H146.49V43.4744H146.419L144.146 49H143.351L141.078 43.4744H141.007V49H140.183V41.7273ZM155.904 44.973V45.7543H152.722V44.973H155.904ZM163.591 49.0994C163.293 49.0947 162.995 49.0379 162.697 48.929C162.398 48.8201 162.126 48.6366 161.88 48.3786C161.634 48.1181 161.436 47.7666 161.287 47.3239C161.138 46.8788 161.063 46.3201 161.063 45.6477C161.063 45.0038 161.123 44.4332 161.244 43.9361C161.365 43.4366 161.54 43.0163 161.77 42.6754C161.999 42.3321 162.276 42.0717 162.601 41.8942C162.927 41.7166 163.296 41.6278 163.705 41.6278C164.112 41.6278 164.474 41.7095 164.792 41.8729C165.111 42.0339 165.372 42.2588 165.573 42.5476C165.774 42.8364 165.904 43.169 165.964 43.5455H165.097C165.017 43.2187 164.86 42.9477 164.628 42.7322C164.396 42.5168 164.089 42.4091 163.705 42.4091C163.142 42.4091 162.698 42.6541 162.373 43.1442C162.051 43.6342 161.889 44.322 161.887 45.2074H161.944C162.076 45.0062 162.234 44.8345 162.416 44.6925C162.601 44.5481 162.804 44.4368 163.027 44.3587C163.249 44.2805 163.485 44.2415 163.733 44.2415C164.15 44.2415 164.531 44.3456 164.877 44.554C165.223 44.7599 165.5 45.0452 165.708 45.4098C165.916 45.772 166.02 46.1875 166.02 46.6562C166.02 47.1061 165.92 47.518 165.719 47.892C165.517 48.2637 165.234 48.5597 164.87 48.7798C164.508 48.9976 164.081 49.1042 163.591 49.0994ZM163.591 48.3182C163.89 48.3182 164.157 48.2436 164.394 48.0945C164.633 47.9453 164.821 47.7453 164.959 47.4943C165.098 47.2434 165.168 46.964 165.168 46.6562C165.168 46.3556 165.101 46.0821 164.966 45.8359C164.833 45.5874 164.65 45.3897 164.415 45.2429C164.183 45.0961 163.918 45.0227 163.62 45.0227C163.395 45.0227 163.185 45.0677 162.991 45.1577C162.797 45.2453 162.627 45.366 162.48 45.5199C162.336 45.6738 162.222 45.8501 162.139 46.049C162.056 46.2455 162.015 46.4527 162.015 46.6705C162.015 46.9593 162.082 47.2292 162.217 47.4801C162.354 47.7311 162.541 47.9335 162.778 48.0874C163.017 48.2412 163.288 48.3182 163.591 48.3182ZM168.2 49.0568C168.025 49.0568 167.875 48.9941 167.749 48.8686C167.624 48.7431 167.561 48.5928 167.561 48.4176C167.561 48.2424 167.624 48.0921 167.749 47.9666C167.875 47.8411 168.025 47.7784 168.2 47.7784C168.375 47.7784 168.526 47.8411 168.651 47.9666C168.777 48.0921 168.839 48.2424 168.839 48.4176C168.839 48.5336 168.81 48.6402 168.751 48.7372C168.694 48.8343 168.617 48.9124 168.52 48.9716C168.425 49.0284 168.318 49.0568 168.2 49.0568ZM172.947 49.0994C172.412 49.0994 171.956 48.9538 171.58 48.6626C171.204 48.3691 170.916 47.9441 170.717 47.3878C170.518 46.8291 170.419 46.1544 170.419 45.3636C170.419 44.5777 170.518 43.9065 170.717 43.3501C170.918 42.7914 171.207 42.3653 171.584 42.0717C171.962 41.7758 172.417 41.6278 172.947 41.6278C173.478 41.6278 173.931 41.7758 174.307 42.0717C174.686 42.3653 174.975 42.7914 175.174 43.3501C175.375 43.9065 175.476 44.5777 175.476 45.3636C175.476 46.1544 175.376 46.8291 175.177 47.3878C174.979 47.9441 174.691 48.3691 174.314 48.6626C173.938 48.9538 173.482 49.0994 172.947 49.0994ZM172.947 48.3182C173.478 48.3182 173.89 48.0625 174.183 47.5511C174.477 47.0398 174.623 46.3106 174.623 45.3636C174.623 44.7339 174.556 44.1977 174.421 43.755C174.288 43.3123 174.097 42.9749 173.846 42.7429C173.597 42.5109 173.298 42.3949 172.947 42.3949C172.422 42.3949 172.011 42.6541 171.715 43.1726C171.419 43.6887 171.271 44.419 171.271 45.3636C171.271 45.9934 171.337 46.5284 171.47 46.9688C171.603 47.4091 171.793 47.7441 172.042 47.9737C172.293 48.2034 172.595 48.3182 172.947 48.3182ZM179.697 49.0994C179.162 49.0994 178.706 48.9538 178.33 48.6626C177.954 48.3691 177.666 47.9441 177.467 47.3878C177.268 46.8291 177.169 46.1544 177.169 45.3636C177.169 44.5777 177.268 43.9065 177.467 43.3501C177.668 42.7914 177.957 42.3653 178.334 42.0717C178.712 41.7758 179.167 41.6278 179.697 41.6278C180.228 41.6278 180.681 41.7758 181.057 42.0717C181.436 42.3653 181.725 42.7914 181.924 43.3501C182.125 43.9065 182.226 44.5777 182.226 45.3636C182.226 46.1544 182.126 46.8291 181.927 47.3878C181.729 47.9441 181.441 48.3691 181.064 48.6626C180.688 48.9538 180.232 49.0994 179.697 49.0994ZM179.697 48.3182C180.228 48.3182 180.64 48.0625 180.933 47.5511C181.227 47.0398 181.373 46.3106 181.373 45.3636C181.373 44.7339 181.306 44.1977 181.171 43.755C181.038 43.3123 180.847 42.9749 180.596 42.7429C180.347 42.5109 180.048 42.3949 179.697 42.3949C179.172 42.3949 178.761 42.6541 178.465 43.1726C178.169 43.6887 178.021 44.419 178.021 45.3636C178.021 45.9934 178.087 46.5284 178.22 46.9688C178.353 47.4091 178.543 47.7441 178.792 47.9737C179.043 48.2034 179.345 48.3182 179.697 48.3182ZM187.515 49V41.7273H189.973C190.543 41.7273 191.01 41.8303 191.372 42.0362C191.737 42.2398 192.006 42.5156 192.182 42.8636C192.357 43.2116 192.444 43.5999 192.444 44.0284C192.444 44.4569 192.357 44.8464 192.182 45.1967C192.009 45.5471 191.741 45.8265 191.379 46.0348C191.017 46.2408 190.553 46.3438 189.987 46.3438H188.226V45.5625H189.959C190.349 45.5625 190.663 45.495 190.9 45.3601C191.136 45.2251 191.308 45.0429 191.415 44.8132C191.523 44.5812 191.578 44.3196 191.578 44.0284C191.578 43.7372 191.523 43.4768 191.415 43.2472C191.308 43.0175 191.135 42.8376 190.896 42.7074C190.657 42.5748 190.34 42.5085 189.944 42.5085H188.396V49H187.515ZM194.363 41.7273H195.414L197.886 47.7642H197.971L200.443 41.7273H201.494V49H200.67V43.4744H200.599L198.326 49H197.531L195.258 43.4744H195.187V49H194.363V41.7273ZM210.083 44.973V45.7543H206.902V44.973H210.083ZM217.672 41.6278C217.97 41.6302 218.268 41.687 218.567 41.7983C218.865 41.9096 219.137 42.0942 219.383 42.3523C219.63 42.608 219.827 42.9571 219.976 43.3999C220.126 43.8426 220.2 44.3977 220.2 45.0653C220.2 45.7116 220.139 46.2857 220.015 46.7876C219.895 47.2872 219.72 47.7086 219.49 48.0518C219.263 48.3951 218.986 48.6555 218.659 48.8331C218.335 49.0107 217.968 49.0994 217.558 49.0994C217.151 49.0994 216.787 49.0189 216.468 48.858C216.151 48.6946 215.89 48.4685 215.687 48.1797C215.485 47.8885 215.356 47.5511 215.3 47.1676H216.166C216.244 47.5014 216.399 47.7772 216.631 47.995C216.866 48.2105 217.175 48.3182 217.558 48.3182C218.119 48.3182 218.562 48.0732 218.886 47.5831C219.213 47.093 219.376 46.4006 219.376 45.5057H219.319C219.187 45.7045 219.029 45.8762 218.847 46.0206C218.665 46.165 218.462 46.2763 218.24 46.3544C218.017 46.4325 217.781 46.4716 217.53 46.4716C217.113 46.4716 216.731 46.3686 216.383 46.1626C216.037 45.9543 215.76 45.669 215.552 45.3068C215.346 44.9422 215.243 44.5256 215.243 44.0568C215.243 43.6117 215.342 43.2045 215.541 42.8352C215.742 42.4635 216.024 42.1676 216.386 41.9474C216.751 41.7273 217.179 41.6207 217.672 41.6278ZM217.672 42.4091C217.373 42.4091 217.105 42.4837 216.866 42.6328C216.629 42.7796 216.441 42.9785 216.301 43.2294C216.164 43.478 216.095 43.7538 216.095 44.0568C216.095 44.3598 216.161 44.6357 216.294 44.8842C216.429 45.1304 216.612 45.3269 216.844 45.4737C217.079 45.6181 217.345 45.6903 217.643 45.6903C217.868 45.6903 218.078 45.6465 218.272 45.5589C218.466 45.469 218.635 45.3471 218.78 45.1932C218.926 45.0369 219.041 44.8606 219.124 44.6641C219.207 44.4652 219.248 44.258 219.248 44.0426C219.248 43.7585 219.18 43.4922 219.042 43.2436C218.907 42.995 218.72 42.7938 218.481 42.6399C218.245 42.486 217.975 42.4091 217.672 42.4091ZM222.468 49.0568C222.292 49.0568 222.142 48.9941 222.017 48.8686C221.891 48.7431 221.828 48.5928 221.828 48.4176C221.828 48.2424 221.891 48.0921 222.017 47.9666C222.142 47.8411 222.292 47.7784 222.468 47.7784C222.643 47.7784 222.793 47.8411 222.919 47.9666C223.044 48.0921 223.107 48.2424 223.107 48.4176C223.107 48.5336 223.077 48.6402 223.018 48.7372C222.961 48.8343 222.884 48.9124 222.787 48.9716C222.693 49.0284 222.586 49.0568 222.468 49.0568ZM227.215 49.0994C226.68 49.0994 226.224 48.9538 225.848 48.6626C225.471 48.3691 225.184 47.9441 224.985 47.3878C224.786 46.8291 224.686 46.1544 224.686 45.3636C224.686 44.5777 224.786 43.9065 224.985 43.3501C225.186 42.7914 225.475 42.3653 225.851 42.0717C226.23 41.7758 226.685 41.6278 227.215 41.6278C227.745 41.6278 228.199 41.7758 228.575 42.0717C228.954 42.3653 229.243 42.7914 229.441 43.3501C229.643 43.9065 229.743 44.5777 229.743 45.3636C229.743 46.1544 229.644 46.8291 229.445 47.3878C229.246 47.9441 228.958 48.3691 228.582 48.6626C228.206 48.9538 227.75 49.0994 227.215 49.0994ZM227.215 48.3182C227.745 48.3182 228.157 48.0625 228.451 47.5511C228.744 47.0398 228.891 46.3106 228.891 45.3636C228.891 44.7339 228.824 44.1977 228.689 43.755C228.556 43.3123 228.364 42.9749 228.113 42.7429C227.865 42.5109 227.565 42.3949 227.215 42.3949C226.689 42.3949 226.279 42.6541 225.983 43.1726C225.687 43.6887 225.539 44.419 225.539 45.3636C225.539 45.9934 225.605 46.5284 225.738 46.9688C225.87 47.4091 226.061 47.7441 226.309 47.9737C226.56 48.2034 226.862 48.3182 227.215 48.3182ZM233.965 49.0994C233.43 49.0994 232.974 48.9538 232.598 48.6626C232.221 48.3691 231.934 47.9441 231.735 47.3878C231.536 46.8291 231.436 46.1544 231.436 45.3636C231.436 44.5777 231.536 43.9065 231.735 43.3501C231.936 42.7914 232.225 42.3653 232.601 42.0717C232.98 41.7758 233.435 41.6278 233.965 41.6278C234.495 41.6278 234.949 41.7758 235.325 42.0717C235.704 42.3653 235.993 42.7914 236.191 43.3501C236.393 43.9065 236.493 44.5777 236.493 45.3636C236.493 46.1544 236.394 46.8291 236.195 47.3878C235.996 47.9441 235.708 48.3691 235.332 48.6626C234.956 48.9538 234.5 49.0994 233.965 49.0994ZM233.965 48.3182C234.495 48.3182 234.907 48.0625 235.201 47.5511C235.494 47.0398 235.641 46.3106 235.641 45.3636C235.641 44.7339 235.574 44.1977 235.439 43.755C235.306 43.3123 235.114 42.9749 234.863 42.7429C234.615 42.5109 234.315 42.3949 233.965 42.3949C233.439 42.3949 233.029 42.6541 232.733 43.1726C232.437 43.6887 232.289 44.419 232.289 45.3636C232.289 45.9934 232.355 46.5284 232.488 46.9688C232.62 47.4091 232.811 47.7441 233.059 47.9737C233.31 48.2034 233.612 48.3182 233.965 48.3182ZM241.783 49V41.7273H244.24C244.811 41.7273 245.277 41.8303 245.64 42.0362C246.004 42.2398 246.274 42.5156 246.449 42.8636C246.624 43.2116 246.712 43.5999 246.712 44.0284C246.712 44.4569 246.624 44.8464 246.449 45.1967C246.276 45.5471 246.009 45.8265 245.647 46.0348C245.284 46.2408 244.82 46.3438 244.255 46.3438H242.493V45.5625H244.226C244.617 45.5625 244.931 45.495 245.167 45.3601C245.404 45.2251 245.576 45.0429 245.682 44.8132C245.791 44.5812 245.846 44.3196 245.846 44.0284C245.846 43.7372 245.791 43.4768 245.682 43.2472C245.576 43.0175 245.403 42.8376 245.164 42.7074C244.925 42.5748 244.607 42.5085 244.212 42.5085H242.664V49H241.783ZM248.631 41.7273H249.682L252.153 47.7642H252.239L254.71 41.7273H255.761V49H254.938V43.4744H254.866L252.594 49H251.798L249.526 43.4744H249.455V49H248.631V41.7273Z" fill="white"/>
<rect x="10" y="8" width="48" height="48" rx="10" fill="#015C92"/>
<path fill-rule="evenodd" clip-rule="evenodd" d="M28.8001 21.6C28.4553 21.6 28.1247 21.737 27.8809 21.9808C27.6371 22.2246 27.5001 22.5552 27.5001 22.9V24.2H26.2001C25.5105 24.2 24.8492 24.4739 24.3616 24.9615C23.874 25.4491 23.6001 26.1104 23.6001 26.8V39.8C23.6001 40.4896 23.874 41.1509 24.3616 41.6385C24.8492 42.1261 25.5105 42.4 26.2001 42.4H41.8001C42.4897 42.4 43.151 42.1261 43.6386 41.6385C44.1262 41.1509 44.4001 40.4896 44.4001 39.8V26.8C44.4001 26.1104 44.1262 25.4491 43.6386 24.9615C43.151 24.4739 42.4897 24.2 41.8001 24.2H40.5001V22.9C40.5001 22.5552 40.3631 22.2246 40.1193 21.9808C39.8755 21.737 39.5449 21.6 39.2001 21.6C38.8553 21.6 38.5247 21.737 38.2809 21.9808C38.0371 22.2246 37.9001 22.5552 37.9001 22.9V24.2H30.1001V22.9C30.1001 22.5552 29.9631 22.2246 29.7193 21.9808C29.4755 21.737 29.1449 21.6 28.8001 21.6ZM28.8001 28.1C28.4553 28.1 28.1247 28.237 27.8809 28.4808C27.6371 28.7246 27.5001 29.0552 27.5001 29.4C27.5001 29.7448 27.6371 30.0754 27.8809 30.3192C28.1247 30.563 28.4553 30.7 28.8001 30.7H39.2001C39.5449 30.7 39.8755 30.563 40.1193 30.3192C40.3631 30.0754 40.5001 29.7448 40.5001 29.4C40.5001 29.0552 40.3631 28.7246 40.1193 28.4808C39.8755 28.237 39.5449 28.1 39.2001 28.1H28.8001Z" fill="white"/>
</svg>
