<svg width="193" height="321" viewBox="0 0 193 321" fill="none" xmlns="http://www.w3.org/2000/svg">
<path d="M-124.989 -85.6096C-118.474 -88.8695 -109.933 -87.5433 -99.9601 -82.1228C-90.0028 -76.7106 -78.7301 -67.2731 -66.8466 -54.5375C-43.0842 -29.0708 -16.9606 9.49955 5.87637 55.1375C28.7133 100.775 43.9228 144.806 50.0604 179.092C53.1297 196.238 53.9252 210.918 52.2878 222.133C50.6477 233.364 46.5894 240.996 40.0745 244.256C33.5595 247.516 25.0185 246.189 15.0456 240.768C5.08828 235.356 -6.18515 225.919 -18.0687 213.184C-41.831 187.717 -67.9543 149.147 -90.7912 103.509C-113.628 57.8715 -128.838 13.8401 -134.976 -20.446C-138.045 -37.5923 -138.84 -52.2728 -137.202 -63.487C-135.562 -74.7185 -131.503 -82.3496 -124.989 -85.6096Z" stroke="#66DED4"/>
<path d="M-216.932 21.2429C-214.63 14.3311 -207.653 9.22953 -196.769 6.0107C-185.901 2.79685 -171.257 1.49913 -153.848 2.10174C-119.038 3.30682 -73.2925 12.108 -24.8734 28.2307C23.5456 44.3534 65.4348 64.7331 94.0186 84.6371C108.313 94.5909 119.256 104.409 126.028 113.496C132.81 122.598 135.337 130.864 133.035 137.776C130.734 144.688 123.756 149.789 112.871 153.008C102.003 156.222 87.3589 157.521 69.9504 156.918C35.1402 155.713 -10.6046 146.912 -59.0235 130.789C-107.443 114.666 -149.333 94.2866 -177.916 74.3825C-192.211 64.4286 -203.154 54.6099 -209.925 45.5223C-216.707 36.4207 -219.234 28.1549 -216.932 21.2429Z" stroke="#66DED4"/>
<path d="M15.623 -95.1516C22.5348 -92.85 27.6364 -85.8729 30.8552 -74.9883C34.0691 -64.1204 35.3668 -49.4761 34.7642 -32.0678C33.5591 2.7425 24.7579 48.488 8.63517 96.9071C-7.48752 145.326 -27.8672 187.215 -47.7712 215.799C-57.725 230.094 -67.5429 241.037 -76.6304 247.808C-85.7321 254.591 -93.9982 257.117 -100.91 254.816C-107.822 252.514 -112.923 245.536 -116.142 234.652C-119.356 223.784 -120.655 209.139 -120.052 191.731C-118.847 156.921 -110.046 111.176 -93.9233 62.7569C-77.8006 14.3378 -57.4207 -27.5522 -37.5166 -56.136C-27.5627 -70.4306 -17.744 -81.3732 -8.65642 -88.1449C0.445178 -94.9271 8.71105 -97.4532 15.623 -95.1516Z" stroke="#66DED4"/>
</svg>
